<svg xmlns="http://www.w3.org/2000/svg" width="71" height="79" fill="none"><g fill="#000" fill-opacity=".7" clip-path="url(#a)"><path d="M51.622.169c-1.658.237-3.983.966-5.368 1.678C41.178 4.475 38.716 9.19 38.7 16.26c0 2.018.342 5.579.598 6.376.035.085-.12.848-.341 1.695-.24.831-.513 2.442-.616 3.578l-.205 2.069-.359-.967c-1.214-3.323-3.914-5.883-6.889-6.494-1.64-.322-4.119-.118-6.016.509-2.65.882-7.282 3.56-8.222 4.747-.479.594-.342 1.34.461 2.544 2.735 4.103 6.974 6.562 10.752 6.206 2.923-.289 5.64-1.153 7.897-2.56l1.47-.933.496.474.478.458v4.104c0 2.797-.068 4.154-.188 4.239-.102.05-.461-.17-.803-.492-4.12-3.917-10.854-2.73-13.264 2.323-.376.78-.513.915-1.163 1.102-2.256.678-4.427 2.441-5.435 4.425-.308.61-.684 1.73-.838 2.493l-.29 1.39-1.009.661c-1.162.746-1.812 1.408-4.444 4.561l-1.863 2.256H6.46c-1.333 0-2.82.084-3.299.186-1.094.237-2.17 1.034-2.735 2.018L0 63.99V75.893l.513.83a4.605 4.605 0 0 0 1.35 1.34l.838.509 3.675.05 3.675.052 4.29-4.24c3.607-3.56 4.462-4.306 5.316-4.713l1.026-.475 9.914-.102c8.598-.084 10.085-.135 11.179-.39 5.042-1.17 9.47-3.577 13.025-7.087 2.12-2.069 2.461-2.68 2.461-4.375 0-1.288-.239-2-.94-2.797-.154-.187-.393-.899-.495-1.577-.616-3.493-3.453-6.19-7.026-6.63-.7-.085-1.453-.152-1.658-.136-.273.017-.598-.254-1.196-.966-1.026-1.255-2.564-2.323-3.966-2.747l-1.06-.305.069-7.478c.05-6.29.12-7.663.358-8.732.172-.695.36-1.322.41-1.39.07-.068.975-.204 2-.305 4.565-.475 9.812-1.865 13.282-3.544 3.008-1.458 5.265-3.052 7.59-5.341 2.905-2.9 4.871-5.985 5.948-9.394.547-1.763.564-2.238.034-2.73-.786-.729-6.598-2.322-10.58-2.916-2.394-.339-6.479-.407-8.41-.135Zm6.666 2.712c3.538.357 9.658 1.832 9.658 2.306 0 .407-.872 2.442-1.573 3.697-1.043 1.831-2.188 3.255-3.966 4.968-3.264 3.137-7.384 5.29-12.666 6.646-1.948.492-6.717 1.272-6.871 1.12-.154-.136 1.128-2.323 2.137-3.663 2.239-3.001 5.657-5.578 8.905-6.714 1.607-.577 2.068-.95 2.068-1.713 0-2.289-3.692-1.289-8.58 2.323-1.95 1.441-3.59 3.086-4.838 4.85a41.156 41.156 0 0 1-.991 1.339c-.325.339-.017-4.985.376-6.443.615-2.34 1.572-4.053 3.162-5.596 3.026-2.984 6.53-3.815 13.179-3.12ZM31.11 25.433c.923.339 3.025 2.034 2.82 2.255-.051.05-.581-.068-1.18-.238-1.897-.593-2.94-.373-3.179.662-.154.695.308 1.509.906 1.627 2.598.543 4.376 1.17 4.256 1.51-.102.338-3.47 1.915-4.751 2.238-1.556.372-3.522.39-4.77.017-1.162-.34-2.82-1.323-3.846-2.29-.769-.712-1.794-2-1.794-2.255 0-.203 2.7-1.848 4.17-2.543 2.906-1.34 5.47-1.696 7.368-.983Zm2.58 17.21c.53.237 1.3.847 1.932 1.526l1.043 1.119.77-.119.768-.102v2.137c0 2.034.017 2.153.428 2.543.256.271.615.424.94.424.325 0 .684-.153.94-.424.41-.39.427-.509.427-2.543 0-1.526.052-2.12.205-2.12.906 0 2.735 1.577 3.419 2.95.479 1 .906 1.17 2.273.933 1.231-.203 2.393-.034 3.47.509.872.458 2 1.644 2.41 2.56l.342.763-.547.153c-1.06.27-1.504.491-3.333 1.644-2.957 1.9-6.905 3.34-9.863 3.646l-1.11.119v-.679c0-1.695-1.283-3.56-2.94-4.306-.907-.407-.924-.407-8.462-.458-8.632-.068-7.88.118-7.213-1.645.427-1.136 1.76-2.56 2.889-3.103.427-.203 1.196-.44 1.709-.542.94-.17 1.71-.56 1.71-.848 0-.526.837-2.205 1.418-2.832 1.743-1.865 4.154-2.374 6.376-1.305Zm.411 13.174c.718.255 1.367 1.153 1.367 1.916 0 .424-.17.763-.615 1.255l-.615.661-5.812.051-5.812.05-.41.476c-.496.576-.53 1.119-.051 1.712l.342.441h6.017c5.606 0 6.068-.034 6.751-.34.41-.186.94-.49 1.18-.677.342-.272.7-.34 1.692-.34 3.675 0 8.854-1.729 12.683-4.221 2.051-1.34 2.923-1.374 3.556-.17.461.882.188 1.424-1.539 3.12-2.615 2.577-6.376 4.781-9.794 5.765-3.077.881-3.71.932-13.145.932-5.743 0-9.076.068-9.675.187-2.085.44-2.906 1-6.239 4.307l-3.128 3.086V62.905l2.393-2.815c3.077-3.629 3.385-3.883 5.128-4.256 1.316-.288 14.888-.305 15.726-.017ZM8.119 69.84v6.104H5.743c-3.35 0-3.094.491-3.094-6.003 0-6.528-.188-6.172 3.385-6.189l2.085-.017v6.105Z"/><path d="M50.801 36.844c-1.026.271-1.966 1.017-2.513 1.983-.341.594-.427.984-.427 1.95 0 1.035.069 1.306.513 2.035 1.88 3.001 6.53 2.374 7.453-1.017.82-2.984-2.017-5.765-5.026-4.951Zm2.068 3.086c.479.525.479 1.085.017 1.661-.273.34-.495.441-1.008.441-1.111 0-1.726-1.119-1.094-2 .564-.798 1.402-.831 2.085-.102Z"/></g><defs><clipPath id="a"><path fill="#fff" d="M0 0h71v78.676H0z"/></clipPath></defs></svg>
