<svg xmlns="http://www.w3.org/2000/svg" width="78" height="90" fill="none"><g fill="#000" fill-opacity=".65" clip-path="url(#a)"><path d="M37.454.231c-3.157 1.155-4.728 4.988-3.406 8.278.513 1.26 1.617 2.52 2.66 3.045l.7.35v3.273l-.016 3.272-3.655 2.363c-2.022 1.295-3.748 2.38-3.842 2.415-.108.017-1.197-1.925-2.426-4.323-1.229-2.415-2.364-4.515-2.535-4.69-.296-.298-.809-.315-7.03-.367l-6.703-.053-.296-.787c-.155-.438-.606-1.173-1.01-1.628-2.644-3.045-7.077-2.188-8.741 1.697-.529 1.208-.591 3.308-.14 4.62.466 1.4 1.586 2.748 2.83 3.396.825.42 1.182.507 2.225.507 1.104 0 1.368-.07 2.286-.577a5.933 5.933 0 0 0 2.597-2.923l.327-.787h11.789l1.975 3.867c1.135 2.188 1.928 3.92 1.85 4.008-.077.087-1.912 1.295-4.074 2.695l-3.92 2.555h-6.672l-1.213-2.415c-1.337-2.678-1.975-3.535-2.597-3.535-.918 0-1.649.822-1.649 1.855 0 .577 3.235 6.86 3.718 7.227.326.228.98.298 3.857.333l3.468.052v9.083h-7.264l-.295-.753c-.7-1.75-2.566-3.29-4.339-3.535-2.317-.332-4.681 1.33-5.63 3.955-.373 1.033-.373 3.133 0 4.165.949 2.626 3.313 4.288 5.63 3.956 1.773-.245 3.64-1.786 4.34-3.553l.295-.735h7.263v9.1l-3.22.018c-2.084 0-3.437.07-3.779.21-.498.192-.715.542-2.302 3.622-1.555 3.01-1.757 3.483-1.68 4.025.094.735.856 1.575 1.431 1.575.825 0 1.198-.437 2.458-2.922.684-1.33 1.337-2.555 1.462-2.73.218-.263.575-.298 3.468-.298h3.25l3.92 2.555c2.162 1.4 3.997 2.608 4.075 2.695.077.088-.716 1.82-1.851 4.008l-1.975 3.867H11.279l-.327-.787c-1.166-2.783-3.888-4.148-6.532-3.238-.98.333-1.26.525-2.084 1.453C1.045 71.142.64 72.297.734 74.275c.078 1.627.42 2.607 1.384 3.832 1.478 1.89 4.215 2.45 6.33 1.295.949-.507 2.084-1.837 2.457-2.835l.296-.787 6.703-.053c6.221-.052 6.735-.07 7.03-.367.171-.175 1.306-2.275 2.535-4.69 1.229-2.398 2.317-4.34 2.426-4.323.094.035 1.82 1.12 3.842 2.415l3.655 2.363.015 3.272v3.273l-.7.35c-.373.192-1.026.7-1.446 1.137-2.737 2.888-1.975 8.05 1.447 9.853.793.42 1.135.49 2.255.49 1.104 0 1.462-.07 2.224-.472 3.452-1.82 4.23-6.966 1.477-9.87-.42-.438-1.073-.946-1.446-1.138l-.7-.35v-3.273l.015-3.272 3.67-2.363c2.023-1.295 3.75-2.38 3.842-2.415.094-.017 1.182 1.925 2.411 4.323 1.229 2.415 2.364 4.515 2.535 4.69.296.297.809.315 7.03.367l6.719.053.187.577c.466 1.435 1.912 2.923 3.359 3.43.949.35 2.52.263 3.561-.175 1.105-.472 2.38-1.802 2.909-3.062.544-1.26.606-3.325.17-4.655-.372-1.12-1.321-2.433-2.192-3.045-2.644-1.873-6.299-.718-7.667 2.45l-.436.962H54.857l-1.975-3.867c-1.12-2.17-1.928-3.92-1.85-4.008.077-.07 1.913-1.295 4.074-2.695l3.95-2.555 3.282.035 3.282.053 1.353 2.625c1.54 2.957 1.944 3.412 2.909 3.132.668-.192 1.181-.927 1.166-1.697-.016-.648-2.753-6.178-3.5-7.035l-.435-.525-3.5-.053-3.499-.052v-9.083h7.264l.295.735c.7 1.767 2.566 3.308 4.34 3.553 1.726.244 3.918-.858 4.914-2.468.575-.945 1.073-2.608 1.073-3.57 0-.963-.498-2.625-1.073-3.57-.996-1.61-3.188-2.713-4.915-2.468-1.773.245-3.64 1.785-4.339 3.535l-.296.753h-7.263v-9.1l3.235-.018c2.069 0 3.422-.07 3.764-.21.482-.192.716-.56 2.302-3.622 1.524-2.975 1.742-3.483 1.68-4.008-.171-1.207-1.291-1.89-2.209-1.365-.326.193-.809.963-1.68 2.695-.684 1.33-1.337 2.555-1.462 2.713-.217.28-.575.315-3.468.315h-3.235l-3.935-2.555c-2.161-1.4-3.997-2.625-4.074-2.695-.078-.088.73-1.838 1.85-4.008l1.976-3.867H66.63l.436.962c1.368 3.168 5.023 4.323 7.667 2.45.87-.612 1.82-1.925 2.193-3.045.435-1.33.373-3.395-.171-4.655-.56-1.295-1.773-2.572-2.877-3.045-1.12-.473-2.784-.525-3.78-.123-1.415.578-2.706 1.943-3.172 3.36l-.187.578-6.719.053c-6.221.052-6.734.07-7.03.367-.17.175-1.306 2.275-2.535 4.69-1.229 2.398-2.317 4.34-2.41 4.323-.094-.035-1.82-1.12-3.842-2.415l-3.67-2.363-.016-3.255v-3.273l.84-.454c1.026-.578 2.006-1.733 2.55-3.046.84-2.065.42-4.76-1.026-6.492C41.544.319 39.196-.416 37.454.23Zm2.613 3.64c.622.385 1.228 1.47 1.228 2.17 0 .175-.14.665-.31 1.068-.918 2.275-3.858 1.802-4.277-.7-.234-1.348.964-2.905 2.24-2.923.279 0 .792.175 1.119.385ZM7.235 13.444c1.462 1.155 1.415 3.377-.093 4.34-.731.473-1.353.508-2.084.088-1.509-.84-1.696-3.273-.327-4.358.778-.612 1.773-.63 2.504-.07Zm65.85 0c.95.595 1.322 2.362.716 3.465-1.136 2.118-3.92 1.4-4.153-1.067-.218-2.1 1.758-3.466 3.437-2.398Zm-25.63 13.51c4.603 2.993 8.647 5.618 8.973 5.863l.576.42v23.1l-.576.42c-.964.7-17.341 11.305-17.465 11.305-.063 0-1.12-.665-2.349-1.452-1.228-.805-5.008-3.255-8.383-5.443-3.375-2.205-6.408-4.182-6.719-4.41l-.59-.42v-23.1l.59-.42c.311-.228 3.344-2.205 6.72-4.41 3.374-2.188 7.122-4.62 8.32-5.425 1.197-.788 2.255-1.453 2.348-1.453.094-.017 3.935 2.433 8.554 5.425ZM6.612 42.652c.218.175.56.682.762 1.155.327.735.342.91.187 1.505-.374 1.417-1.54 2.293-2.691 2.012-.638-.157-1.462-1.032-1.68-1.767-.497-1.698.84-3.535 2.41-3.308.343.053.794.245 1.012.403Zm66.675-.298c1.042.438 1.726 1.733 1.524 2.888-.14.84-.902 1.767-1.649 1.995-1.213.367-2.457-.438-2.8-1.803-.466-1.925 1.291-3.78 2.925-3.08ZM7.359 71.877c.95.77 1.245 2.328.622 3.36-.544.893-1.073 1.26-1.866 1.26-1.322.035-2.302-1.05-2.302-2.52 0-2.047 2.069-3.272 3.546-2.1Zm65.509-.175c1.54.858 1.664 3.413.217 4.428-1.555 1.067-3.608-.298-3.437-2.31.156-1.89 1.758-2.958 3.22-2.118Zm-32.692 9.66c.513.35 1.104 1.523 1.12 2.17.015 1.173-1.245 2.556-2.333 2.556-1.276 0-2.489-1.558-2.255-2.923.295-1.838 2.084-2.748 3.468-1.803Z"/><path d="M33.084 35.214a2.327 2.327 0 0 0-.56.578c-.25.402-5.693 16.415-5.724 16.835-.078 1.155.514 1.96 1.447 1.96.87 0 1.322-.543 1.928-2.275l.498-1.487L34 50.772l3.329-.035.45 1.435c.56 1.75 1.074 2.415 1.882 2.415 1.074 0 1.789-1.05 1.494-2.188-.078-.297-1.338-4.112-2.8-8.487-2.97-8.838-3.002-8.925-4.261-8.925-.358.017-.81.105-1.011.227Zm1.975 8.82c.513 1.558.949 2.923.949 3.028 0 .105-.747.175-2.022.175-1.105 0-2.022-.053-2.022-.123 0-.14 1.85-5.652 1.975-5.88.109-.21.078-.28 1.12 2.8ZM45.76 35.18c-.716.472-.732.682-.732 9.607 0 8.995.016 9.17.762 9.625.607.35 1.416.21 1.898-.332l.45-.508v-17.5l-.404-.543c-.326-.455-.513-.542-1.041-.542-.358 0-.778.087-.934.192Z"/></g><defs><clipPath id="a"><path fill="#fff" d="M0 0h78v89.5H0z"/></clipPath></defs></svg>