<svg width="16" height="16" viewBox="0 0 16 16" fill="none" xmlns="http://www.w3.org/2000/svg">
<g clip-path="url(#clip0_799_1285)">
<path d="M13.56 0.0379333C13.2837 0.100445 12.8818 0.303605 12.6808 0.481762C12.5584 0.591156 7.45285 6.13588 5.42445 8.36127L5.24233 8.55818L4.78704 9.92717C4.37257 11.1618 4.32861 11.3118 4.32861 11.5087C4.32861 12.1244 4.90322 12.5745 5.49039 12.4182C5.7353 12.3526 8.08712 11.3243 8.22841 11.2212C8.31947 11.1524 14.8286 4.0824 15.5162 3.30413C15.9401 2.8228 16.1097 2.06954 15.9275 1.46006C15.7454 0.838075 15.2273 0.303605 14.6056 0.0973186C14.2979 -0.00582409 13.8615 -0.0308285 13.56 0.0379333ZM14.2351 1.42568C14.5742 1.57883 14.7155 1.97265 14.5428 2.28833C14.48 2.4071 8.41681 9.02389 8.37285 9.02389C8.35715 9.02389 8.14049 8.83948 7.89244 8.61132L7.44029 8.19875L7.57217 8.0581C7.64438 7.97996 9.03538 6.46406 10.6619 4.69188C12.976 2.16643 13.6448 1.45693 13.739 1.41943C13.8991 1.35379 14.0813 1.35379 14.2351 1.42568ZM7.11374 9.7709C7.29271 9.9303 7.43087 10.0741 7.42145 10.0866C7.39947 10.121 6.02104 10.7179 6.0022 10.6992C5.9865 10.6836 6.41353 9.37395 6.47005 9.26456C6.49831 9.21142 6.51401 9.2208 6.64589 9.3427C6.72752 9.41771 6.9379 9.60837 7.11374 9.7709Z" fill="black" fill-opacity="0.7"/>
<path d="M2.79318 1.49452C2.08983 1.56953 1.40533 1.90396 0.899798 2.4228C0.504166 2.82913 0.249832 3.26983 0.0928349 3.83555L0.0111965 4.13248L0.00177674 8.55513C-0.00450313 11.6088 0.00177674 13.0591 0.0268962 13.2435C0.202733 14.6218 1.24833 15.7095 2.62048 15.9471C3.02867 16.0189 11.6258 16.0189 12.034 15.9471C13.3905 15.7095 14.4204 14.6531 14.6245 13.2841C14.6716 12.9653 14.6716 6.99236 14.6245 6.82045C14.5742 6.64542 14.3387 6.41726 14.1566 6.36725C13.9085 6.30161 13.6636 6.36412 13.4847 6.54228C13.2806 6.74857 13.2963 6.49852 13.2774 10.0085L13.2617 13.1966L13.1926 13.4029C13.0137 13.9217 12.5772 14.3562 12.056 14.5343L11.8488 14.6031L7.42144 14.6125C2.52942 14.6218 2.76178 14.6312 2.34417 14.4249C2.07413 14.2905 1.70362 13.9186 1.57174 13.6498C1.37079 13.2435 1.37707 13.4372 1.37707 8.72704C1.37707 4.00433 1.37079 4.22312 1.57802 3.81055C1.78526 3.39798 2.16519 3.07917 2.63304 2.91977C2.83714 2.85101 2.83714 2.85101 6.13407 2.83538C9.76698 2.81662 9.50636 2.83225 9.70418 2.62597C9.88629 2.43531 9.93653 2.12275 9.82663 1.87896C9.745 1.7008 9.53776 1.53515 9.34622 1.49452C9.15469 1.45388 3.18567 1.45388 2.79318 1.49452Z" fill="black" fill-opacity="0.7"/>
</g>
<defs>
<clipPath id="clip0_799_1285">
<rect width="16" height="16" fill="white"/>
</clipPath>
</defs>
</svg>
