<svg xmlns="http://www.w3.org/2000/svg" width="20" height="20" fill="none"><g fill="#39CA07" clip-path="url(#a)"><path d="M9 .046C8.111.134 6.927.442 6.093.8 1.74 2.667-.72 7.293.188 11.918c.984 5.021 5.64 8.51 10.729 8.038a10.034 10.034 0 0 0 8.273-6.021c2.1-4.888-.013-10.555-4.814-12.918a10.134 10.134 0 0 0-5.377-.97Zm1.729 1.934a8.018 8.018 0 0 1 6.031 3.646 8.044 8.044 0 0 1 0 8.75c-2.963 4.543-9.444 4.951-12.92.813a8.068 8.068 0 0 1-.138-10.221C4.852 3.522 6.578 2.47 8.416 2.1c.525-.109 1.342-.184 1.73-.159.116.009.375.025.583.038Z"/><path d="M13.021 6.851c-.162.08-.633.525-2.188 2.084l-1.98 1.983-.875-.875c-.558-.554-.933-.896-1.03-.933a.991.991 0 0 0-1.062.229.997.997 0 0 0-.2 1.029c.046.104.496.583 1.367 1.458 1.146 1.146 1.325 1.309 1.505 1.367a.976.976 0 0 0 .792-.083c.091-.058 1.225-1.159 2.513-2.45 2.53-2.534 2.513-2.513 2.513-2.95a.887.887 0 0 0-.33-.713.909.909 0 0 0-1.024-.146Z"/></g><defs><clipPath id="a"><path fill="#fff" d="M0 0h20v20H0z"/></clipPath></defs></svg>