<svg xmlns="http://www.w3.org/2000/svg" width="86" height="79" fill="none"><g fill="#000" fill-opacity=".7" clip-path="url(#a)"><path d="M36.917.018c-3.923.265-6.686 1.059-8.881 2.54-1.283.868-2.492 2.365-2.944 3.655-.222.612-1.3 4.996-1.941 7.858-.288 1.299-.715 3.085-.822 3.432-.124.43.074.373-2.311.613-2.344.24-4.408.297-10.773.297-6.809 0-6.85.009-7.713.472-.551.306-1.078.951-1.34 1.646-.182.488-.206.678-.182 1.282.025.637.058.777.379 1.414.674 1.381 1.792 2.15 4.819 3.35 1.184.463 1.9.711 3.503 1.216 2.804.877 7.039 1.836 10.813 2.448.864.133 1.678.273 1.818.29l.255.041.049 1.927c.082 3.292.354 4.83 1.266 7.337 1.538 4.218 4.63 7.824 8.33 9.702 1.58.802 2.525 1.133 4.285 1.522.946.207 1.16.223 2.993.223 1.826 0 2.048-.016 2.969-.223 2.87-.62 5.074-1.67 7.319-3.482.74-.596 2.014-1.911 2.533-2.614.18-.248.444-.587.575-.736.132-.157.313-.455.403-.662.09-.215.288-.53.428-.711.148-.182.296-.422.329-.538.033-.116.238-.554.46-.968a10.32 10.32 0 0 0 .576-1.323c.099-.314.255-.728.337-.926.304-.679.74-2.738.888-4.202.066-.62.181-3.557.165-4.21 0-.058.287-.14.723-.199 2.862-.397 6.982-1.216 9.35-1.877a233.53 233.53 0 0 0 1.234-.331c.904-.223 3.141-.951 5.057-1.638 1.225-.438 2.69-1.133 3.52-1.662 1.02-.662 1.71-1.68 1.916-2.846.263-1.48-.6-2.994-2.023-3.523-.387-.14-.905-.157-8.306-.207-4.342-.033-8.28-.1-8.758-.14-.477-.05-1.439-.15-2.138-.216-.699-.074-1.283-.132-1.283-.132-.008 0-.04-.14-.074-.314a253.37 253.37 0 0 0-1.069-4.69c-.205-.877-.51-2.217-.658-2.854-.32-1.439-.789-3.3-.929-3.722C50.921 3.004 47.171.746 41.77.134c-.806-.091-4.063-.174-4.852-.116Zm3.371 4.665c3.676.256 6.34 1.39 7.196 3.069.214.413.436 1.356.345 1.447-.033.033-.477-.016-.978-.116-1.744-.339-2.854-.512-3.216-.512a2.07 2.07 0 0 0-1.439.587c-.477.455-.69.918-.74 1.571-.09 1.266.822 2.316 2.212 2.556.288.05.954.14 1.472.207.518.066 1.447.198 2.056.298.608.09 1.275.198 1.472.223l.37.058.313 1.282c.312 1.282.361 1.654.255 1.654-.042 0-.642-.116-1.341-.248a50.452 50.452 0 0 0-2.18-.372 30.625 30.625 0 0 1-1.027-.166c-.19-.057-3.117-.38-4.194-.454a36.19 36.19 0 0 0-4.44 0c-1.11.082-4.178.405-4.359.454-.066.025-.55.1-1.069.166-.518.066-1.11.165-1.316.215-.205.041-.806.149-1.34.232l-.97.148.049-.256c.115-.538.608-2.547.641-2.58.058-.059.913-.2 3.224-.538 2.985-.422 3.24-.497 3.815-1.084 1.135-1.141.773-3.16-.666-3.788-.567-.24-1.135-.199-3.684.281-1.102.215-1.48.24-1.48.116 0-.248.247-1.125.411-1.456.444-.918 1.818-1.869 3.413-2.365 1.916-.596 4.457-.81 7.195-.629Zm3.043 15.831c1.151.124 2.196.24 2.31.265.124.025.692.116 1.275.198 1.275.19 3.158.538 3.594.662.173.05.428.166.576.248.172.1.567.182 1.167.248.502.05 1.168.124 1.48.166.856.124 3.644.405 4.811.496 1.62.124 6.645.33 8.117.33.74 0 1.34.026 1.34.067 0 .033-.173.108-.386.157-.222.058-.65.182-.97.273-.774.232-2.032.57-2.591.703-2.747.654-3.997.918-5.674 1.2-2.492.413-3.142.512-6.949.984-3.635.455-9.49.835-12.87.835-2.532 0-7.87-.281-10.238-.537-2.335-.248-4.77-.538-5.55-.662a90.442 90.442 0 0 0-1.686-.248 37.296 37.296 0 0 1-1.036-.166c-.066-.024-.551-.115-1.07-.206-2.063-.364-4.177-.828-6.858-1.506a55.196 55.196 0 0 0-1.274-.306 14.121 14.121 0 0 1-1.012-.29c-.214-.074-.46-.132-.55-.132-.083 0-.182-.041-.206-.082-.033-.05.312-.083.962-.091.559 0 1.16-.017 1.34-.033.181-.017 1.127-.05 2.097-.083 2.92-.083 7.229-.405 9.457-.695.337-.05 1.077-.124 1.645-.182.567-.05 1.168-.14 1.34-.207.165-.066.46-.173.658-.248.485-.182 5.016-.934 6.43-1.059.321-.033 1.062-.107 1.645-.173 1.637-.19 1.736-.19 4.235-.166 1.76.025 2.862.083 4.441.24ZM27.83 31.35c1.44.174 1.842.207 4.112.348 5.378.323 7.705.33 12.746.025 2.55-.15 3.158-.199 4.893-.405 1.192-.141 1.069-.273 1.069 1.116 0 2.705-.535 5.186-1.53 7.171-1.521 3.02-4.21 5.468-7.105 6.468-.995.34-1.916.488-3.338.521-1.456.042-2.385-.09-3.693-.529-2.755-.91-5.542-3.49-7.064-6.534-1.003-2.018-1.373-3.722-1.422-6.543l-.033-1.753h.189c.107 0 .633.05 1.176.115ZM73.757 34.675c-1.118.206-2.055 1.075-2.335 2.158-.107.422-.132 1.092-.132 4.07v3.556l-3.758.025-3.766.025-.411.223c-.6.315-1.086.828-1.373 1.44-.23.496-.247.595-.214 1.257.024.62.074.794.312 1.24.321.604.757 1.026 1.398 1.332l.453.215 3.675.025 3.676.025.025 3.656c.025 3.598.025 3.664.214 4.127.107.256.353.662.559.885 1.209 1.348 3.429 1.175 4.449-.356.468-.686.468-.703.493-4.656l.033-3.656 3.347-.025 3.347-.025.477-.223c1.242-.587 1.85-1.596 1.768-2.92-.05-.736-.288-1.265-.806-1.778-.206-.207-.551-.472-.781-.58l-.411-.206-3.47-.025-3.48-.025v-3.498c0-3.582-.04-4.12-.328-4.723-.485-1.001-1.908-1.754-2.96-1.563Z"/><path d="M26.39 50.133a9.14 9.14 0 0 0-.904.199c-.156.05-.69.182-1.192.306-1.036.248-3.19.86-3.742 1.067l-.904.33c-.296.1-.814.307-1.151.456-.338.14-.716.297-.84.347-.123.041-.633.298-1.134.57-3.314 1.763-5.937 4.112-7.985 7.147-.888 1.315-1.275 2.01-1.982 3.598-.543 1.208-1.143 3.284-1.455 5.046-.305 1.712-.46 6.27-.255 7.361a3.39 3.39 0 0 0 1.562 2.225l.37.215h62.827l.353-.19a3.47 3.47 0 0 0 1.357-1.382l.263-.496.025-2.481c.033-2.564-.05-4.07-.28-5.319-.838-4.574-2.812-8.42-5.953-11.604-.609-.62-1.365-1.323-1.686-1.58-2.632-2.068-5.888-3.705-9.621-4.822-.403-.124-.963-.29-1.234-.38-.502-.158-1.143-.323-2.097-.546-.781-.182-1.538-.116-1.957.165-.288.182-.411.38-.79 1.15-1.085 2.266-3.33 4.226-5.88 5.153-3.132 1.141-6.948.694-9.629-1.125-1.53-1.034-3.084-2.846-3.495-4.07-.41-1.224-1.151-1.612-2.59-1.34Zm-.616 5.352c.847 1.298 2.45 2.903 3.824 3.821 1.982 1.332 3.857 2.06 6.496 2.54.782.14 3.1.181 4.071.082 2.977-.322 5.904-1.497 8.01-3.192.789-.637 2.335-2.283 2.861-3.053.157-.231.296-.43.305-.438.09-.1 3.52 1.026 4.736 1.555 2.286.993 4.753 2.639 6.044 4.053 2.336 2.556 3.43 4.483 4.277 7.56.32 1.158.46 2.308.51 4.16l.049 1.837H9.533v-1.398c0-1.613.156-2.995.502-4.475.329-1.398.468-1.853.748-2.382.123-.248.23-.496.23-.563 0-.066.148-.355.32-.645.174-.298.428-.769.568-1.059.14-.289.313-.578.395-.645.074-.066.247-.28.37-.48.452-.719 1.653-2.034 2.459-2.688.337-.28.633-.529.658-.554.024-.025.28-.231.575-.471 1.094-.86 3.051-1.927 4.614-2.515.847-.314 3.133-1.034 3.544-1.108a4.3 4.3 0 0 0 .617-.174c.42-.149.386-.157.641.232Z"/></g><defs><clipPath id="a"><path fill="#fff" d="M0 0h86v79H0z"/></clipPath></defs></svg>