<svg width="800" height="800" viewBox="0 0 20 20" xmlns="http://www.w3.org/2000/svg"><path fill="#555" d="M10 0c5.523 0 10 4.477 10 10s-4.477 10-10 10S0 15.523 0 10 4.477 0 10 0m.667 1.359v1.035a.667.667 0 0 1-1.334 0V1.359A8.6 8.6 0 0 0 5.637 2.51l.522.584a.667.667 0 0 1-.995.888l-.63-.707a8.7 8.7 0 0 0-1.776 1.962l.843.506a.667.667 0 0 1-.686 1.143l-.803-.481a8.6 8.6 0 0 0-.709 2.491h.907a.667.667 0 1 1 0 1.334l-.973-.001v.031a8.6 8.6 0 0 0 .742 3.263l.836-.559a.667.667 0 0 1 .741 1.109l-.939.627A8.66 8.66 0 0 0 10 18.667a8.66 8.66 0 0 0 7.447-4.23l-1.132-.757a.667.667 0 0 1 .74-1.109l.989.661a8.6 8.6 0 0 0 .62-3.003H17.58a.667.667 0 0 1 0-1.333h1.017a8.6 8.6 0 0 0-.57-2.168l-.95.492a.667.667 0 1 1-.612-1.184l.965-.5a8.7 8.7 0 0 0-1.839-2.158l-.602.789a.667.667 0 1 1-1.06-.81l.58-.76a8.6 8.6 0 0 0-3.842-1.238m3.248 5.46a.667.667 0 0 1-.104.937l-2.04 1.631.007.12c0 .692-.529 1.262-1.205 1.326l-.129.006a1.333 1.333 0 1 1 .558-2.544l1.976-1.58a.667.667 0 0 1 .937.104"/></svg>