<svg xmlns="http://www.w3.org/2000/svg" width="76" height="79" fill="none"><g fill="#000" fill-opacity=".7" clip-path="url(#a)"><path d="M63.461.23c-.564.123-1.678.54-2.45.941l-1.395.71-18.467 19.08C31.009 31.46 22.533 40.29 22.325 40.599c-.475.726-5.997 17.923-5.997 18.695 0 1.528 1.172 2.748 2.627 2.748.342 0 4.038-1.204 9.1-2.964l8.536-2.949L54.45 37.665c9.813-10.158 18.215-18.88 18.645-19.39 3.118-3.673 3.756-8.042 1.767-12.272-.564-1.22-.89-1.683-1.96-2.794-1.068-1.127-1.499-1.451-2.686-2.038C67.944.044 65.776-.265 63.46.23Zm4.23 5.943c.98.478 1.827 1.327 2.346 2.377.357.68.401.957.401 2.239 0 1.25-.06 1.59-.356 2.238-.297.618-4.068 4.616-18.304 19.451l-17.933 18.68-5.226 1.806c-2.865 1.003-5.24 1.79-5.27 1.775-.015-.03.743-2.485 1.678-5.45l1.722-5.387 17.398-18.108c9.56-9.957 17.71-18.402 18.097-18.741 1.603-1.405 3.681-1.745 5.448-.88Z"/><path d="M5.862 5.988c-2.02.586-3.875 2.176-4.855 4.121-1.068 2.115-1.01-.123-1.01 32.11 0 20.053.045 29.316.164 29.949.564 3.226 3.4 6.144 6.517 6.7.683.123 8.432.154 26.499.123l25.534-.046.994-.401c2.747-1.112 4.676-3.412 5.24-6.284.193-.957.223-3.226.193-15.993l-.044-14.85-.356-.556c-.743-1.112-2.034-1.606-3.177-1.22-.668.232-1.514 1.204-1.722 1.976-.104.386-.164 5.326-.164 15.052 0 9.833-.044 14.603-.163 14.897-.208.586-.846 1.281-1.425 1.528-.4.185-4.602.216-25.593.216H7.376l-.609-.37c-.341-.201-.757-.649-.95-.988l-.326-.618.03-29.161.044-29.177.415-.556c.876-1.204-.653-1.096 18.512-1.188 12.649-.062 17.22-.124 17.443-.263.386-.231 1.025-.957 1.262-1.42.535-1.08 0-2.825-1.083-3.489l-.654-.386-17.354.016c-15.973 0-17.428.03-18.244.278Z"/></g><defs><clipPath id="a"><path fill="#fff" d="M0 0h76v79H0z"/></clipPath></defs></svg>