<svg width="22" height="20" viewBox="0 0 22 20" fill="none" xmlns="http://www.w3.org/2000/svg">
<g clip-path="url(#clip0_780_561)">
<path d="M0.420531 15.1376L8.10773 1.82878L8.13816 1.78037C8.45484 1.26063 8.88287 0.81787 9.39132 0.484088C9.87847 0.170433 10.4449 0.00249667 11.024 0C11.6027 9.13647e-05 12.169 0.167568 12.6549 0.482295C13.1644 0.817012 13.5926 1.26179 13.908 1.78395C13.9313 1.8216 13.9528 1.85926 13.9725 1.8987L21.5344 15.048L21.5755 15.1268C21.8602 15.6933 22.0056 16.3197 21.9998 16.9538C21.997 17.4773 21.8641 17.9918 21.6131 18.4509C21.3296 18.9638 20.8961 19.3774 20.3707 19.636L20.2669 19.6827C19.7527 19.9051 19.1959 20.0116 18.636 19.9946H3.1542C3.11302 19.9946 3.07543 19.9946 3.03604 19.9946C2.65686 19.9916 2.28116 19.9218 1.92611 19.7884C1.36198 19.5743 0.877078 19.1919 0.536895 18.693C0.195081 18.1848 0.0084575 17.588 -0.00017038 16.9753C-0.00900828 16.4397 0.0864588 15.9074 0.280894 15.4083C0.317428 15.3136 0.363622 15.2229 0.418741 15.1376H0.420531Z" fill="#8C806E"/>
<path fill-rule="evenodd" clip-rule="evenodd" d="M1.61112 15.914L9.33591 2.53881C10.2722 1.05966 11.7581 1.02201 12.7141 2.53881L20.3117 15.7526C20.9168 16.9736 20.6161 18.6213 18.6397 18.5801H3.15429C1.8528 18.6123 1.00602 17.4702 1.60754 15.914H1.61112Z" fill="#FB9E0B"/>
<path d="M11.7077 7.24659C11.5404 7.41243 11.3194 7.51291 11.0847 7.52987C10.9386 7.53978 10.7922 7.51839 10.655 7.46712C10.5207 7.41448 10.3988 7.33451 10.297 7.23225C10.1263 7.06243 10.0232 6.83617 10.007 6.59576C10.002 6.51182 10.0068 6.42758 10.0213 6.34475C10.0618 6.10836 10.1863 5.89463 10.3719 5.74304C10.5575 5.59144 10.7916 5.51222 11.031 5.52001C11.1714 5.52259 11.3098 5.55434 11.4373 5.61324C11.6662 5.71865 11.8466 5.90701 11.9422 6.14036C11.9719 6.21355 11.9929 6.28997 12.0048 6.36806C12.0172 6.4457 12.0208 6.52448 12.0156 6.60293C12.002 6.72737 11.9675 6.84861 11.9135 6.96151C11.8667 7.06808 11.7978 7.16343 11.7112 7.24121L11.7077 7.24659ZM10.2468 9.08254C10.2827 8.22373 11.7345 8.22194 11.7685 9.08254C11.9153 10.5545 12.2913 14.3519 12.2787 15.7343C12.2662 16.161 11.9207 16.4138 11.4624 16.5106C11.1669 16.5694 10.8628 16.5694 10.5673 16.5106C10.1001 16.4102 9.73485 16.152 9.73485 15.7145V15.6715L10.2468 9.08254Z" fill="black" fill-opacity="0.75"/>
</g>
<defs>
<clipPath id="clip0_780_561">
<rect width="22" height="20" fill="white"/>
</clipPath>
</defs>
</svg>
