<svg xmlns="http://www.w3.org/2000/svg" viewBox="0 0 512 512" xml:space="preserve"><path d="M443.381 282.396h-15.835v155.707H84.454V79.175h343.093V256h15.835V42.455L478.76 0H33.24l35.379 42.455v427.09L33.24 512h445.519l-35.378-42.455zM67.049 15.835h377.904L427.546 36.72v26.62H84.454V36.72zm377.902 480.33H67.049l17.405-20.885v-21.341h343.093v21.341z"/><path d="M203.216 105.567h105.567v15.835H203.216zm126.681 0h21.113v15.835h-21.113zm42.227 0h21.113v15.835h-21.113zm-211.134 0h21.113v15.835H160.99zm-42.227 0h21.113v15.835h-21.113zm84.453 290.309h105.567v15.835H203.216zm126.681 0h21.113v15.835h-21.113zm42.227 0h21.113v15.835h-21.113zm-211.134 0h21.113v15.835H160.99zm-42.227 0h21.113v15.835h-21.113zm143.208-250.643L256 138.378l-5.971 6.854c-.526.603-13.036 15.033-27.078 36.837l13.313 8.573a366 366 0 0 1 19.726-27.683c17.487 22.283 66.554 90.867 53.159 143.299-5.345 20.925-20.542 37.283-45.233 48.737v-27.098l24.073-24.072-11.196-11.198-12.875 12.876v-30.39l24.072-24.072-11.196-11.198-12.876 12.876v-33.668h-15.835v33.668l-12.876-12.876-11.196 11.197 24.072 24.072v30.39l-12.876-12.876-11.196 11.198 24.072 24.072v27.074c-22.172-10.286-36.725-24.505-43.278-42.398-6.827-18.638-8.637-52.065 21.508-105.468l-13.79-7.783c-26.211 46.434-34.022 87.479-22.587 118.697 9.222 25.181 30.526 44.105 63.315 56.249l2.75 1.019 2.75-1.019c36.195-13.405 58.316-34.979 65.749-64.118 18.165-71.208-59.226-161.123-62.529-164.916"/></svg>