<svg xmlns="http://www.w3.org/2000/svg" width="79" height="79" fill="none"><path fill="#000" fill-opacity=".7" d="M33.548.111c-5.256.99-9.23 5.054-10.126 10.34-.108.618-.155 2.58-.124 5.038l.047 4.034.417.618c.634.959 1.391 1.36 2.597 1.36s1.964-.401 2.598-1.36l.417-.618.093-4.265c.077-3.957.108-4.328.433-5.163a6.222 6.222 0 0 1 3.787-3.616c.742-.263 1.825-.278 17.563-.278h16.774l.897.355a6.284 6.284 0 0 1 3.617 3.802c.263.742.279 2.257.279 29.149 0 26.893-.016 28.407-.279 29.149a6.284 6.284 0 0 1-3.617 3.802l-.897.356H51.25c-15.738 0-16.82-.016-17.563-.279A6.222 6.222 0 0 1 29.9 68.92c-.325-.835-.356-1.206-.433-5.147-.093-4.127-.108-4.266-.464-4.837-.201-.325-.65-.773-.99-1.005-.525-.356-.803-.417-1.654-.417-.85 0-1.128.061-1.654.417-.34.232-.788.68-.99 1.005-.37.587-.37.618-.37 5.146 0 4.884.046 5.317.896 7.419 1.098 2.72 4.082 5.656 6.756 6.661 2.35.881 1.19.835 20.176.835 18.984 0 17.825.046 20.175-.835 2.674-1.005 5.658-3.941 6.756-6.661.974-2.411.897.077.897-31.993s.077-29.582-.897-31.993c-1.098-2.72-4.082-5.656-6.74-6.661-2.382-.881-1.067-.835-19.805-.85-10.157-.015-17.563.03-18.01.108Z"/><path fill="#000" fill-opacity=".7" d="M36.176 26.337a3.717 3.717 0 0 0-1.747 1.33c-.355.51-.417.772-.417 1.622 0 1.33.263 1.7 3.308 4.73l2.335 2.318-18.83.077-18.83.078-.635.417C.386 37.543 0 38.3 0 39.521c0 .835.077 1.113.417 1.638.232.34.68.788 1.005.99l.588.37 18.83.078 18.815.077-2.335 2.318c-3.045 3.03-3.308 3.4-3.308 4.73 0 .865.062 1.112.448 1.653.68.99 1.36 1.345 2.567 1.345.757 0 1.128-.077 1.546-.34.293-.186 2.334-2.133 4.514-4.343 3.664-3.678 4.02-4.096 4.53-5.162 1.067-2.257 1.067-4.482 0-6.723-.51-1.082-.866-1.5-4.437-5.085-2.134-2.164-4.144-4.096-4.468-4.312-.588-.418-1.917-.634-2.536-.418Z"/></svg>