<svg xmlns="http://www.w3.org/2000/svg" width="27" height="19" fill="none"><path fill="#000" d="M1.255.1C.923.204.512.483.338.721.042 1.118 0 1.276 0 1.952c0 .57.016.665.127.886.179.36.527.686.928.876l.342.164 11.998.016c13.31.01 12.281.042 12.84-.333.29-.2.48-.417.654-.75.095-.19.111-.31.111-.86 0-.548-.016-.67-.11-.86-.18-.348-.349-.538-.644-.739-.56-.38.464-.353-12.767-.348C2.094.004 1.539.01 1.255.1ZM1.24 7.657c-.417.132-.77.401-1.013.77l-.2.296v1.552l.2.296c.248.374.596.638 1.033.776.327.105.47.105 12.24.105s11.913 0 12.24-.105a1.888 1.888 0 0 0 1.033-.776l.2-.296V8.723l-.2-.295a1.889 1.889 0 0 0-1.033-.776c-.327-.106-.464-.106-12.261-.1-11.665 0-11.929.005-12.24.105ZM1.24 15.205c-.502.174-.881.501-1.113.955-.111.222-.127.317-.127.887 0 .549.016.67.11.86.26.507.602.802 1.14.982l.327.11h11.912c13.221 0 12.198.027 12.757-.353.295-.2.464-.39.643-.739.095-.19.111-.311.111-.86 0-.55-.016-.67-.11-.86a1.874 1.874 0 0 0-.655-.745c-.559-.374.47-.348-12.756-.348-11.886.005-11.923.005-12.24.11Z"/></svg>