<svg xmlns="http://www.w3.org/2000/svg" width="77" height="79" fill="none"><path fill="#000" fill-opacity=".7" d="M34.38.197c-6.428.77-12.15 2.925-17.42 6.58C9.708 11.792 4.462 18.834 1.737 27.21.863 29.941.028 34.25.002 36.302c-.013.885.026 1.014.36 1.45.489.641.887.795 2.648.974 4.166.41 7.843 1.386 11.931 3.143 7.277 3.142 14.4 9.312 18.796 16.277.437.692 1.286 2.218 1.903 3.373 1.234 2.373 1.453 2.604 2.494 2.604.9 0 1.311-.424 2.25-2.335C45.77 50.951 56.3 42.383 67.588 39.64c1.684-.411 4.358-.835 6.132-.976 1.286-.102 1.838-.32 2.173-.885.373-.615.424-1.103.27-2.54-1.286-11.735-7.431-21.983-17.1-28.525-2.802-1.898-5.232-3.142-8.484-4.374C45.41.39 39.407-.405 34.379.197Zm7.932 3.63c5.966.898 11.558 3.335 16.752 7.298 1.401 1.078 4.397 4.08 5.72 5.734 3.678 4.579 6.172 9.991 7.085 15.301.437 2.617.488 2.425-.617 2.527-2.237.193-5.297.86-7.881 1.68-7.868 2.54-16.096 8.35-21.65 15.29-.463.59-1.492 2-2.263 3.155l-1.414 2.09-1.029-1.552c-2.597-3.925-4.834-6.528-7.97-9.299-5.49-4.86-11.468-8.234-17.807-10.081-1.774-.513-4.975-1.167-6.35-1.296l-.875-.077.09-.718c.193-1.68.862-4.579 1.466-6.31 1.53-4.477 3.625-8.132 6.75-11.762C15.506 12.1 19.26 9.214 23.76 6.982c3.767-1.847 7.753-3 11.815-3.398 1.685-.154 4.757-.052 6.737.243Z"/><path fill="#000" fill-opacity=".7" d="M36.822 6.739c-.18.025-.668.115-1.092.192-1.067.193-2.7.872-3.677 1.527-.45.307-1.26 1-1.787 1.539-3.253 3.322-3.947 8.157-1.761 12.364 1.362 2.63 3.702 4.528 6.608 5.362.848.243 1.298.295 2.995.282 1.8 0 2.109-.039 3.15-.36 2.88-.872 4.924-2.577 6.287-5.207 2.134-4.13 1.555-8.876-1.517-12.275-1.247-1.385-3.549-2.744-5.361-3.18-.836-.193-3.253-.347-3.845-.244Zm2.122 3.514c.848.41.964.731.964 2.784 0 .974.039 1.885.077 2.039.064.256.129.27 1.89.218 2.147-.077 2.636.038 3.227.77.321.397.386.602.386 1.18.013.744-.206 1.167-.875 1.654-.321.244-.565.27-2.532.308l-2.173.038v2.066c0 1.808-.026 2.103-.244 2.462-.707 1.142-2.61 1.206-3.317.116-.193-.283-.245-.732-.296-2.476l-.064-2.116-2.057-.064c-2.43-.077-2.764-.193-3.176-1.116-.437-.975-.18-1.86.72-2.527.322-.244.54-.27 2.43-.282l2.083-.013.026-1.975c.025-2.296.141-2.643.99-3.066.668-.32 1.26-.32 1.94 0ZM37.131 34.354c-.527.32-.733.962-.669 2.013l.052.821h-.874c-1.595 0-2.237.513-2.134 1.68.051.488.154.744.411.988.308.308.45.346 1.427.398l1.093.038v.731c0 1.411.424 2.13 1.324 2.283.27.039.643 0 .848-.09.605-.243.81-.68.888-1.872l.064-1.052 1.067-.051c.913-.038 1.106-.077 1.388-.346.18-.18.386-.5.45-.744a1.633 1.633 0 0 0-.45-1.59c-.282-.27-.475-.309-1.414-.36l-1.08-.038v-.796c0-1.077-.192-1.68-.63-2-.475-.321-1.234-.334-1.761-.013ZM1.892 49.04c-.553.256-.939.898-.939 1.578 0 .897.952 3.604 2.225 6.323 2.198 4.694 5.67 9.325 9.398 12.531 10.593 9.094 24.49 11.852 37.938 7.516 5.284-1.693 10.555-4.886 14.567-8.811 3.265-3.181 5.566-6.362 7.61-10.53 1.53-3.117 2.482-5.734 2.495-6.888.013-.834 0-.885-.463-1.334-.399-.41-.579-.488-1.17-.54-2.276-.179-9.976 3.297-15.145 6.85-5.04 3.463-9.783 7.709-13.165 11.787-1.272 1.527-3.56 4.785-4.46 6.362l-.81 1.398-1.916-.038-1.916-.026-.874-1.462c-2.379-3.95-4.693-6.888-7.958-10.145-6.351-6.337-14.502-11.608-21.792-14.07-1.89-.63-2.995-.783-3.625-.501Zm5.811 5.823c3.651 1.5 9.05 4.977 13.37 8.606 1.8 1.527 5.285 5.054 6.673 6.773.681.86 1.659 2.154 2.134 2.886.72 1.064.849 1.334.669 1.36-.129.025-.926-.168-1.787-.411-4.513-1.296-8.627-3.36-12.227-6.131-1.555-1.193-4.204-3.771-5.425-5.285-1.363-1.68-2.931-4.142-3.934-6.156-.527-1.052-.951-1.963-.951-2.027 0-.14.552 0 1.478.385Zm61.209 1.744c-1.723 3.45-3.883 6.44-6.454 8.927-4.14 4.002-9.32 6.914-15.299 8.594-.758.205-1.44.385-1.504.385-.283 0 1.44-2.565 3.111-4.618 1.401-1.718 4.783-5.092 6.763-6.746 2.88-2.399 6.428-4.849 9.513-6.567 2.366-1.309 4.706-2.309 4.808-2.053.026.065-.398 1.001-.938 2.078Z"/></svg>