<svg xmlns="http://www.w3.org/2000/svg" width="77" height="79" fill="none"><path fill="#000" fill-opacity=".7" d="M34.53.156C27.24 1.192 21.159 5.04 17.929 10.682c-3.645 6.337-2.761 14.173 2.22 19.784 1.316 1.484 3.77 3.431 5.63 4.482 3.085 1.763 6.315 2.705 10.14 2.999 6.893.51 13.046-1.422 17.864-5.642 4.71-4.111 6.82-9.165 6.261-15.023-.433-4.56-2.526-8.378-6.405-11.716-3.176-2.736-6.84-4.452-11.17-5.24-1.913-.355-6.063-.433-7.94-.17Zm7.65 4.884c2.941.634 4.962 1.639 7.38 3.633 1.624 1.329 3.158 3.153 3.88 4.636 1.768 3.617 1.714 8.192-.144 11.624-1.678 3.091-4.53 5.595-8.12 7.079-1.931.803-3.284 1.113-5.54 1.298-5.377.433-10.087-1.051-13.786-4.328-2.255-2.01-3.573-4.034-4.348-6.708-.47-1.623-.415-5.286.108-6.955 1.39-4.483 5.936-8.64 10.989-10.047 2.797-.773 6.712-.865 9.581-.232Z"/><path fill="#000" fill-opacity=".7" d="M18.11 38.287c-8.987.85-14.87 6.8-17.125 17.296-.613 2.89-.812 4.544-.956 7.96-.163 4.25.343 6.553 1.967 9.057 1.93 2.952 5.305 5.07 9.617 6.028l1.624.371h50.524l1.606-.355c5.666-1.237 9.69-4.575 11.133-9.228.74-2.396.65-8.114-.216-12.628C74.119 45.32 68.2 39.122 58.637 38.287c-.993-.093-2.075-.124-2.4-.062-.866.14-2.075.68-5.017 2.288-3.193 1.746-3.392 1.824-5.792 2.566-2.526.772-4.51 1.081-6.929 1.081-2.418 0-4.403-.309-6.929-1.081-2.436-.742-2.562-.804-6.135-2.752-1.624-.896-3.212-1.715-3.537-1.824-.83-.309-2.129-.386-3.789-.216Zm1.948 4.637c.216.093 1.606.835 3.086 1.638 3.085 1.7 4.565 2.319 7.488 3.138 5.684 1.592 11.025 1.484 16.98-.34 1.966-.603 3.915-1.468 6.694-3.014 2.977-1.654 2.76-1.577 4.222-1.422 5.648.603 9.474 4.235 11.549 10.959 1.299 4.235 1.93 11.267 1.263 13.972-.776 3.122-3.23 5.317-6.965 6.229-1.083.263-2.508.278-25.785.278-27.049 0-25.443.062-27.97-.974-1.713-.695-3.32-2.024-4.113-3.43-.939-1.64-1.173-3.015-1.029-6.338.127-3.37.325-4.93.939-7.65 1.028-4.622 3.103-8.41 5.774-10.62 1.48-1.22 3.915-2.179 6.225-2.426.613-.077 1.155-.14 1.19-.155.037 0 .235.062.452.155Z"/></svg>