<svg width="77" height="79" viewBox="0 0 77 79" fill="none" xmlns="http://www.w3.org/2000/svg">
<path d="M34.3798 0.197437C27.9517 0.967014 22.2306 3.12183 16.9595 6.77732C9.70857 11.7924 4.4632 18.834 1.73767 27.2096C0.863442 29.9416 0.0277826 34.2512 0.00207003 36.3034C-0.0107863 37.1884 0.0277826 37.3167 0.362046 37.7528C0.850585 38.3941 1.24913 38.548 3.01044 38.7276C7.17588 39.138 10.8528 40.1128 14.9411 41.87C22.2177 45.0124 29.3401 51.1819 33.737 58.1466C34.1741 58.8392 35.0226 60.3655 35.6397 61.5199C36.8739 63.8927 37.0925 64.1236 38.1338 64.1236C39.0338 64.1236 39.4452 63.7003 40.3837 61.7892C45.7705 50.951 56.2998 42.3831 67.5876 39.6382C69.2718 39.2278 71.9459 38.8045 73.7201 38.6634C75.0057 38.5608 75.5585 38.3428 75.8928 37.7784C76.2656 37.1628 76.317 36.6754 76.1628 35.2388C74.8771 23.5028 68.7318 13.2546 59.0639 6.71318C56.2612 4.8149 53.8314 3.57075 50.5787 2.33942C45.4105 0.389832 39.4066 -0.405396 34.3798 0.197437ZM42.3121 3.82727C48.2775 4.72511 53.8699 7.16211 59.0639 11.1254C60.4652 12.2028 63.4607 15.2042 64.7849 16.8588C68.4618 21.4377 70.956 26.8504 71.8688 32.1605C72.3059 34.7771 72.3573 34.5847 71.2516 34.6873C69.0147 34.8797 65.9549 35.5467 63.3707 36.3675C55.5027 38.9071 47.2747 44.7174 41.7207 51.6565C41.2579 52.2465 40.2294 53.6574 39.458 54.8117L38.0438 56.9024L37.0153 55.3504C34.4184 51.4256 32.1814 48.8218 29.0444 46.0514C23.5548 41.1902 17.5766 37.8169 11.2385 35.9699C9.4643 35.4569 6.26308 34.8027 4.88746 34.6745L4.01323 34.5975L4.10323 33.8792C4.29607 32.199 4.9646 29.3003 5.56885 27.5687C7.09874 23.0923 9.19432 19.4369 12.3184 15.807C15.5068 12.1002 19.2608 9.21431 23.7605 6.98254C27.5274 5.13555 31.5128 3.98119 35.5754 3.58357C37.2596 3.42966 40.3323 3.53227 42.3121 3.82727Z" fill="white"/>
<path d="M36.8225 6.73887C36.6425 6.76452 36.154 6.85431 35.7297 6.93127C34.6626 7.12366 33.0299 7.80345 32.0528 8.45759C31.6028 8.76542 30.7929 9.45804 30.2658 9.99675C27.0131 13.3188 26.3189 18.1543 28.5045 22.3613C29.8672 24.9907 32.2071 26.889 35.1126 27.7227C35.9611 27.9664 36.4111 28.0177 38.1081 28.0048C39.908 28.0048 40.2166 27.9664 41.2579 27.6457C44.1377 26.7735 46.1819 25.0676 47.5446 22.4382C49.6788 18.3082 49.1003 13.5625 46.0276 10.1635C44.7805 8.77825 42.4793 7.41866 40.6665 6.98257C39.8309 6.79018 37.4139 6.63626 36.8225 6.73887ZM38.9438 10.2533C39.7923 10.6637 39.908 10.9844 39.908 13.0366C39.908 14.0114 39.9466 14.922 39.9851 15.076C40.0494 15.3325 40.1137 15.3453 41.875 15.294C44.022 15.217 44.5106 15.3325 45.1019 16.0636C45.4234 16.4612 45.4876 16.6664 45.4876 17.2436C45.5005 17.9875 45.2819 18.4108 44.6134 18.8982C44.292 19.1419 44.0477 19.1675 42.0807 19.206L39.908 19.2445V21.3095C39.908 23.118 39.8823 23.413 39.6637 23.7722C38.9566 24.9137 37.0539 24.9778 36.3468 23.8876C36.154 23.6054 36.1025 23.1565 36.0511 21.4121L35.9868 19.2958L33.9298 19.2317C31.5 19.1547 31.1657 19.0393 30.7543 18.1158C30.3172 17.141 30.5743 16.256 31.4743 15.589C31.7957 15.3453 32.0142 15.3197 33.9041 15.3068L35.9868 15.294L36.0125 13.3188C36.0383 11.0229 36.154 10.6765 37.0025 10.2533C37.671 9.93262 38.2624 9.93262 38.9438 10.2533Z" fill="white"/>
<path d="M37.131 34.3538C36.6039 34.6745 36.3982 35.3158 36.4625 36.3675L36.5139 37.1884H35.6397C34.0455 37.1884 33.4027 37.7015 33.5056 38.8687C33.557 39.3561 33.6598 39.6126 33.917 39.8563C34.2255 40.1641 34.3669 40.2026 35.344 40.2539L36.4368 40.2924V41.0235C36.4368 42.4344 36.8611 43.1526 37.761 43.3066C38.031 43.345 38.4038 43.3066 38.6095 43.2168C39.2138 42.9731 39.4195 42.537 39.4966 41.3441L39.5609 40.2924L40.628 40.2411C41.5408 40.2026 41.7336 40.1641 42.0164 39.8948C42.1964 39.7152 42.4021 39.3945 42.4664 39.1508C42.6207 38.5993 42.4407 37.958 42.0164 37.5604C41.7336 37.291 41.5408 37.2526 40.6022 37.2012L39.5223 37.1628V36.3675C39.5223 35.2901 39.3295 34.6873 38.8924 34.3666C38.4167 34.046 37.6582 34.0332 37.131 34.3538Z" fill="white"/>
<path d="M1.892 49.0399C1.33918 49.2964 0.953491 49.9378 0.953491 50.6176C0.953491 51.5154 1.90486 54.2217 3.17763 56.9409C5.37606 61.6353 8.84726 66.2656 12.5756 69.4722C23.1692 78.566 37.0668 81.3237 50.5145 76.9884C55.7984 75.2953 61.0695 72.1016 65.0807 68.1767C68.3462 64.9958 70.6475 61.8149 72.6916 57.6464C74.2215 54.5296 75.1729 51.913 75.1857 50.7586C75.1986 49.9249 75.1857 49.8736 74.7229 49.4247C74.3244 49.0143 74.1444 48.9373 73.553 48.886C71.2774 48.7064 63.5765 52.1824 58.4083 55.7352C53.3686 59.1983 48.6246 63.4438 45.2434 67.5226C43.9707 69.0489 41.6822 72.3068 40.7823 73.8844L39.9723 75.2825L38.0568 75.244L36.1412 75.2184L35.2669 73.7562C32.8885 69.8057 30.5744 66.8685 27.3089 63.6106C20.9579 57.2744 12.807 52.0028 5.51748 49.5401C3.6276 48.9117 2.52196 48.7577 1.892 49.0399ZM7.70305 54.8631C11.3542 56.3637 16.7539 59.8397 21.0736 63.4695C22.8735 64.9958 26.3575 68.523 27.746 70.2418C28.4274 71.1011 29.4045 72.3966 29.8802 73.1277C30.6001 74.1923 30.7287 74.4616 30.5487 74.4873C30.4201 74.5129 29.623 74.3205 28.7617 74.0768C24.2491 72.7814 20.1351 70.7163 16.5353 67.9459C14.9797 66.753 12.3313 64.1749 11.11 62.6614C9.7472 60.9812 8.17873 58.5185 7.17594 56.5048C6.64883 55.4531 6.22457 54.5424 6.22457 54.4783C6.22457 54.3372 6.77739 54.4783 7.70305 54.8631ZM68.9119 56.6074C67.1891 60.0577 65.0293 63.0462 62.458 65.5345C58.3183 69.5363 53.1372 72.4479 47.159 74.1281C46.4005 74.3333 45.7191 74.5129 45.6548 74.5129C45.372 74.5129 47.0947 71.9477 48.7661 69.8955C50.1674 68.1767 53.5486 64.8034 55.5285 63.1488C58.4083 60.7503 61.9566 58.3005 65.0421 56.5818C67.4077 55.2735 69.7475 54.273 69.8504 54.5296C69.8761 54.5937 69.4518 55.53 68.9119 56.6074Z" fill="white"/>
</svg>
