<svg xmlns="http://www.w3.org/2000/svg" viewBox="0 0 184.153 184.153" xml:space="preserve"><path d="M129.318 0H26.06a3.474 3.474 0 0 0-3.475 3.475v177.203a3.475 3.475 0 0 0 3.475 3.475h132.034a3.474 3.474 0 0 0 3.475-3.475V34.131C161.568 22.011 140.771 0 129.318 0m25.302 177.203H29.535V6.949h99.784c7.803 0 25.301 18.798 25.301 27.182z"/><path d="M71.23 76.441c15.327 0 27.797-12.47 27.797-27.797S86.557 20.847 71.23 20.847s-27.797 12.47-27.797 27.797S55.902 76.441 71.23 76.441m-.001-48.644c11.497 0 20.848 9.351 20.848 20.847 0 .888-.074 1.758-.183 2.617l-18.071-2.708-11.318-18.818a20.7 20.7 0 0 1 8.724-1.938m-14.468 5.871 11.951 19.869a3.48 3.48 0 0 0 2.462 1.646l18.669 2.799c-3.433 6.814-10.477 11.51-18.613 11.51-11.496 0-20.847-9.351-20.847-20.847-.002-5.878 2.453-11.184 6.378-14.977m-9.854 56.671h73.058v6.949H46.907zm0 17.373h48.644v6.949H46.907zm0 17.373h62.542v6.949H46.907z"/></svg>