<svg width="19" height="22" viewBox="0 0 19 22" fill="none" xmlns="http://www.w3.org/2000/svg">
<g clip-path="url(#clip0_1660_1491)">
<path d="M7.70133 0.0659618C6.79838 0.285387 6.0971 0.986687 5.94585 1.81706C5.91835 1.97625 5.87251 2.10532 5.84501 2.10532C5.82209 2.10532 5.7075 2.07951 5.59292 2.04509C4.78164 1.81706 3.92452 2.02788 3.30116 2.60871C2.79239 3.09059 2.61364 3.52083 2.61364 4.26515V4.72982L2.4853 4.6997C2.41655 4.67819 2.16445 4.66528 1.92611 4.66528C1.53193 4.66528 1.46318 4.67819 1.179 4.80296C0.59231 5.06541 0.161461 5.5774 0.046873 6.14533C-0.0172961 6.46801 -0.0127126 15.8517 0.0514565 16.3679C0.202712 17.5984 0.523558 18.6052 0.995659 19.3668C1.93528 20.864 3.36533 21.6686 5.59292 21.9439C6.17961 22.0171 7.99467 22.0214 8.43469 21.9482C10.1581 21.6772 11.5606 21.0232 12.6653 19.9777C13.1832 19.4872 13.2932 19.3409 14.8791 16.9918C16.7446 14.2339 17.235 13.5541 18.5138 11.9794C19.0501 11.3212 19.1418 10.6586 18.7934 9.99172C18.523 9.47972 17.8538 9.04948 17.1663 8.94622C16.6529 8.86878 16.1029 8.97204 15.672 9.23018C15.4612 9.35495 14.2237 10.4908 13.7836 10.9684L13.527 11.248L13.5224 7.86631C13.5224 4.20492 13.527 4.30387 13.2703 3.8263C13.0182 3.36594 12.4773 2.9486 11.9457 2.81523C11.6523 2.74209 11.0427 2.74209 10.7173 2.81953L10.5889 2.84534V2.39789C10.5889 2.13974 10.5614 1.84718 10.5202 1.7052C10.1902 0.517719 8.90221 -0.230906 7.70133 0.0659618ZM8.72803 1.43414C8.86096 1.50728 8.98013 1.62345 9.06263 1.75252L9.19097 1.95474L9.21389 6.0937C9.2368 10.1896 9.2368 10.2327 9.33306 10.3488C9.57598 10.6586 9.95183 10.736 10.2773 10.5467C10.5981 10.3574 10.5889 10.4736 10.5889 7.39304C10.5889 4.67819 10.5889 4.62656 10.6852 4.44156C10.8273 4.1619 11.006 4.06294 11.3681 4.06294C11.6065 4.06294 11.6981 4.08445 11.8173 4.1619C12.1427 4.38132 12.1198 4.08445 12.1473 8.60202L12.1702 12.6678L12.2711 12.8442C12.4728 13.197 12.7936 13.3562 13.252 13.3261C13.6003 13.3046 13.7745 13.1712 14.1274 12.685C14.6774 11.9192 16.0846 10.4865 16.4787 10.2886C16.7721 10.1466 17.3588 10.2714 17.5284 10.5209C17.6338 10.6672 17.6338 10.8909 17.5284 11.0458C17.4825 11.1147 17.1342 11.5535 16.7629 12.0182C16.0021 12.9647 15.3054 13.9457 13.637 16.411C13.0136 17.3317 12.4086 18.2223 12.294 18.3858C11.4965 19.5044 10.0985 20.3219 8.45761 20.636C8.13218 20.6962 7.83425 20.7134 7.05964 20.7091C5.53791 20.7048 4.68997 20.5542 3.75951 20.1197C3.33783 19.9261 3.22324 19.8443 2.84281 19.4872C2.11403 18.8031 1.7611 18.0975 1.48151 16.7552C1.40817 16.4024 1.39901 15.9334 1.38984 11.3857C1.37151 5.85706 1.35317 6.20556 1.67402 6.02055C1.94444 5.86567 2.27904 5.93451 2.47155 6.18835C2.56322 6.30882 2.5678 6.36045 2.5678 8.2019C2.5678 9.9659 2.57697 10.0993 2.65947 10.2671C2.75114 10.465 2.95282 10.607 3.19116 10.65C3.402 10.6844 3.72285 10.5424 3.84202 10.3574C3.94285 10.2068 3.94285 10.181 3.97494 7.05314C4.00244 3.97259 4.00702 3.89944 4.09869 3.72305C4.27745 3.39176 4.74497 3.19815 5.16207 3.27559C5.41416 3.32292 5.70292 3.56385 5.79459 3.79619C5.84959 3.94677 5.86334 4.45877 5.88626 7.06605C5.90918 9.94009 5.91376 10.1681 5.99168 10.2886C6.12919 10.5123 6.30336 10.6027 6.57837 10.6027C6.85796 10.6027 7.02755 10.5123 7.17423 10.2757C7.2659 10.1337 7.2659 10.0304 7.28881 6.02055C7.31632 1.48577 7.2934 1.80845 7.60049 1.5331C7.89842 1.26635 8.35219 1.22762 8.72803 1.43414Z" fill="black" fill-opacity="0.55"/>
</g>
<defs>
<clipPath id="clip0_1660_1491">
<rect width="19" height="22" fill="white"/>
</clipPath>
</defs>
</svg>
