<svg xmlns="http://www.w3.org/2000/svg" width="85" height="78" fill="none"><path fill="#000" fill-opacity=".7" d="M36.96.02c-3.873.26-6.602 1.044-8.77 2.506-1.266.858-2.46 2.336-2.906 3.61-.22.604-1.283 4.933-1.916 7.758-.284 1.282-.707 3.046-.812 3.39-.122.424.073.367-2.282.604-2.314.236-4.352.294-10.636.294-6.723 0-6.764.008-7.616.465-.544.302-1.064.94-1.323 1.625-.18.482-.203.67-.18 1.266.025.629.058.768.374 1.397.666 1.364 1.77 2.123 4.758 3.307 1.17.457 1.876.702 3.46 1.2 2.768.866 6.95 1.814 10.676 2.418.853.13 1.656.27 1.794.286l.252.04.049 1.903c.081 3.25.349 4.77 1.25 7.244 1.519 4.165 4.571 7.726 8.225 9.58 1.559.792 2.493 1.118 4.23 1.502.934.204 1.145.22 2.956.22 1.802 0 2.021-.016 2.93-.22 2.834-.612 5.01-1.65 7.227-3.438.73-.588 1.99-1.886 2.5-2.58.18-.245.44-.58.57-.727.129-.156.308-.45.397-.654.09-.212.284-.522.422-.702.146-.18.293-.416.325-.53.032-.115.235-.548.455-.956.219-.417.47-1.005.568-1.307.097-.31.252-.719.333-.915.3-.67.73-2.703.877-4.148.065-.613.178-3.512.162-4.157 0-.057.284-.139.715-.196 2.825-.392 6.893-1.2 9.231-1.854.585-.155 1.129-.302 1.218-.327.893-.22 3.102-.939 4.994-1.616 1.21-.433 2.655-1.12 3.475-1.642 1.007-.653 1.689-1.658 1.892-2.81.26-1.461-.593-2.956-1.998-3.478-.381-.14-.893-.155-8.2-.204-4.287-.033-8.176-.098-8.647-.14-.471-.048-1.421-.146-2.111-.212-.69-.073-1.267-.13-1.267-.13a1.82 1.82 0 0 1-.073-.31c-.049-.262-.715-3.218-1.056-4.631-.203-.866-.503-2.189-.65-2.818-.316-1.42-.779-3.258-.917-3.675-1.128-3.29-4.83-5.52-10.165-6.124-.796-.09-4.011-.172-4.79-.115Zm3.328 4.605c3.63.253 6.26 1.372 7.105 3.03.21.408.43 1.34.34 1.43-.032.032-.47-.017-.965-.115-1.722-.335-2.818-.507-3.175-.507-.528 0-1.047.213-1.42.58-.472.45-.683.907-.732 1.552-.089 1.25.812 2.287 2.184 2.523.285.05.942.14 1.454.205.511.065 1.429.196 2.03.294.6.09 1.258.196 1.453.22l.365.057.309 1.266c.308 1.266.357 1.633.252 1.633-.041 0-.634-.114-1.324-.245a49.91 49.91 0 0 0-2.151-.367c-.488-.074-.95-.147-1.015-.164-.187-.057-3.078-.375-4.141-.449-1.194-.09-3.191-.09-4.385 0-1.096.082-4.124.4-4.303.45-.065.024-.544.098-1.055.163-.512.065-1.097.163-1.3.212-.203.041-.795.147-1.323.229l-.958.147.049-.253c.113-.531.6-2.516.633-2.548.057-.057.901-.196 3.183-.531 2.947-.417 3.199-.49 3.767-1.07 1.12-1.127.763-3.12-.658-3.74-.56-.237-1.12-.196-3.637.277-1.088.213-1.462.237-1.462.115 0-.245.244-1.11.406-1.438.439-.906 1.795-1.845 3.37-2.335 1.892-.588 4.4-.8 7.104-.62Zm3.005 15.631c1.136.122 2.167.237 2.281.261.122.025.682.115 1.259.196 1.258.188 3.117.531 3.548.654.17.049.422.163.568.245.17.098.56.18 1.153.245.495.049 1.153.122 1.462.163.844.122 3.596.4 4.75.49 1.599.122 6.56.327 8.013.327.73 0 1.324.024 1.324.065 0 .033-.171.106-.382.155-.22.057-.642.18-.958.27-.763.228-2.006.563-2.558.694-2.712.645-3.946.906-5.602 1.184-2.46.408-3.102.506-6.86.972-3.59.449-9.37.825-12.708.825-2.5 0-7.77-.278-10.108-.531-2.306-.245-4.71-.531-5.48-.654a87.73 87.73 0 0 0-1.665-.244c-.487-.074-.95-.148-1.023-.164-.065-.024-.544-.114-1.056-.204-2.038-.36-4.124-.817-6.771-1.486-.358-.09-.926-.229-1.259-.303a13.931 13.931 0 0 1-.998-.285c-.212-.074-.455-.131-.545-.131-.08 0-.178-.04-.202-.082-.033-.049.308-.081.95-.09.552 0 1.144-.016 1.323-.032a91.845 91.845 0 0 1 2.07-.082c2.883-.081 7.137-.4 9.338-.686.332-.049 1.063-.122 1.623-.18.56-.049 1.153-.138 1.324-.204.162-.065.455-.171.65-.245.479-.18 4.952-.922 6.349-1.045.316-.033 1.047-.106 1.624-.171 1.615-.188 1.713-.188 4.181-.164 1.738.025 2.826.082 4.384.237ZM27.987 30.954c1.42.172 1.818.204 4.06.343 5.31.319 7.607.327 12.584.025 2.517-.147 3.118-.196 4.831-.4 1.178-.14 1.056-.27 1.056 1.102 0 2.67-.528 5.12-1.51 7.08-1.502 2.981-4.157 5.399-7.016 6.387-.982.335-1.891.482-3.296.514-1.437.041-2.355-.09-3.646-.522-2.72-.899-5.472-3.447-6.974-6.452-.99-1.993-1.356-3.675-1.405-6.46l-.032-1.731h.186c.106 0 .626.049 1.162.114Z"/><path fill="#000" fill-opacity=".7" d="M26.567 49.5a9.019 9.019 0 0 0-.893.197c-.155.048-.683.18-1.178.302-1.023.245-3.15.849-3.694 1.053l-.893.327c-.293.098-.804.302-1.137.449-.333.139-.706.294-.828.343-.122.04-.625.294-1.12.563-3.273 1.74-5.863 4.06-7.884 7.056-.877 1.299-1.259 1.985-1.957 3.553-.536 1.192-1.129 3.242-1.437 4.981-.3 1.691-.455 6.19-.252 7.269.17.89.755 1.731 1.543 2.197l.365.212h62.032l.349-.188a3.426 3.426 0 0 0 1.34-1.364l.26-.49.024-2.45c.032-2.531-.049-4.018-.276-5.25-.828-4.517-2.777-8.314-5.879-11.459-.6-.612-1.348-1.306-1.664-1.56-2.598-2.041-5.814-3.658-9.5-4.76-.398-.123-.95-.286-1.218-.376-.495-.155-1.128-.319-2.07-.54-.772-.179-1.518-.113-1.933.164-.284.18-.406.376-.779 1.135-1.072 2.238-3.288 4.174-5.805 5.088-3.094 1.127-6.861.686-9.508-1.11-1.51-1.021-3.045-2.81-3.45-4.018-.407-1.21-1.137-1.593-2.558-1.323Zm-.61 5.284c.837 1.282 2.42 2.867 3.776 3.773 1.957 1.315 3.808 2.034 6.415 2.507.77.14 3.06.18 4.018.082 2.94-.318 5.83-1.478 7.909-3.152.78-.629 2.306-2.254 2.825-3.014.155-.228.293-.424.3-.432.09-.099 3.476 1.012 4.677 1.535 2.258.98 4.693 2.605 5.968 4.001 2.306 2.524 3.386 4.427 4.222 7.465.317 1.143.455 2.278.504 4.107l.048 1.813H9.922v-1.38c0-1.592.154-2.956.495-4.418.325-1.38.463-1.83.74-2.352.12-.245.226-.49.226-.555 0-.065.147-.351.317-.637.17-.294.422-.76.56-1.045.138-.286.309-.572.39-.637.073-.066.244-.278.365-.474.447-.71 1.633-2.01 2.428-2.654.333-.278.625-.523.65-.547.024-.025.276-.229.568-.466 1.08-.85 3.012-1.903 4.555-2.483.836-.31 3.093-1.02 3.5-1.094.17-.032.438-.106.608-.171.414-.147.382-.155.634.228ZM69.742 28.903c-1.435.097-2.445.387-3.248.929-.47.317-.912.865-1.077 1.337-.081.224-.475 1.827-.71 2.874a31.95 31.95 0 0 1-.3 1.256c-.046.157.026.136-.846.223-.857.088-1.612.11-3.94.11-2.49 0-2.506.002-2.822.172-.201.112-.394.348-.49.602-.066.178-.075.248-.066.469.009.233.021.284.138.517.247.505.656.787 1.763 1.225.433.17.695.26 1.281.445 1.026.32 2.575.672 3.956.896.315.048.613.1.664.105l.093.016.018.704c.03 1.205.13 1.767.464 2.684.562 1.543 1.693 2.862 3.047 3.549.577.293.923.414 1.567.556.346.076.424.082 1.095.082.667 0 .749-.006 1.085-.082 1.05-.227 1.856-.61 2.677-1.273a6.91 6.91 0 0 0 .927-.956c.066-.091.162-.215.21-.27a1.2 1.2 0 0 0 .148-.242c.033-.078.105-.193.156-.26a.751.751 0 0 0 .12-.196c.013-.043.088-.203.169-.354.081-.155.174-.373.21-.484.036-.115.094-.267.124-.34.111-.247.27-1 .325-1.536.024-.227.066-1.301.06-1.54 0-.021.105-.052.264-.073 1.047-.145 2.554-.444 3.42-.686l.451-.121c.331-.082 1.15-.348 1.85-.6a7.36 7.36 0 0 0 1.288-.608c.373-.242.625-.614.7-1.04a1.173 1.173 0 0 0-.74-1.289c-.14-.051-.33-.057-3.037-.076-1.589-.012-3.03-.036-3.204-.051a98.798 98.798 0 0 0-.782-.079l-.469-.048a92.298 92.298 0 0 0-.418-1.83c-.075-.321-.186-.811-.24-1.044a24.31 24.31 0 0 0-.34-1.362c-.419-1.219-1.79-2.045-3.766-2.269a19.34 19.34 0 0 0-1.775-.042Zm1.233 1.706c1.345.094 2.32.509 2.632 1.123.078.151.16.496.127.53-.013.011-.175-.007-.358-.043-.638-.124-1.044-.188-1.177-.188a.758.758 0 0 0-.526.215.812.812 0 0 0-.27.575c-.034.463.3.847.808.935.106.018.35.051.539.075.19.024.53.073.752.11.222.032.466.072.538.08l.136.022.114.469c.114.469.132.605.093.605-.015 0-.234-.042-.49-.09a18.536 18.536 0 0 0-.797-.137c-.18-.027-.352-.054-.376-.06-.07-.021-1.14-.14-1.534-.167a13.256 13.256 0 0 0-1.624 0c-.406.03-1.528.149-1.595.167-.024.009-.201.036-.39.06-.19.024-.407.06-.482.079-.075.015-.295.054-.49.084l-.355.055.018-.094c.042-.197.223-.932.235-.944.02-.02.334-.072 1.179-.196 1.091-.155 1.185-.182 1.395-.397.415-.417.283-1.155-.243-1.385-.208-.088-.415-.073-1.348.103-.403.078-.541.087-.541.042 0-.09.09-.412.15-.533.163-.335.665-.683 1.248-.865.701-.218 1.63-.296 2.632-.23Zm1.113 5.79c.421.046.803.088.845.098.045.009.253.042.467.072.466.07 1.155.197 1.314.242.063.018.156.06.21.091.064.036.208.067.428.09.183.019.427.046.541.061.313.046 1.332.149 1.76.182.592.045 2.43.12 2.968.12.271 0 .49.01.49.025 0 .012-.063.04-.14.057l-.356.1c-.282.085-.743.21-.947.258-1.005.238-1.462.335-2.076.438-.91.151-1.148.188-2.541.36-1.33.167-3.471.306-4.707.306a48.42 48.42 0 0 1-3.745-.197 59.948 59.948 0 0 1-2.03-.242 32.796 32.796 0 0 0-.617-.09c-.18-.028-.352-.055-.379-.061a6.205 6.205 0 0 0-.391-.076 34.2 34.2 0 0 1-2.509-.55 20.523 20.523 0 0 0-.466-.112 5.194 5.194 0 0 1-.37-.106.874.874 0 0 0-.201-.049c-.03 0-.066-.015-.075-.03-.013-.018.114-.03.352-.033.204 0 .424-.006.49-.012s.412-.019.767-.03a42.556 42.556 0 0 0 3.459-.255c.123-.018.394-.045.601-.066.208-.018.427-.052.49-.076.06-.024.169-.063.241-.09.178-.067 1.835-.343 2.352-.388l.602-.063c.598-.07.635-.07 1.549-.06.644.008 1.047.03 1.624.087Zm-5.67 3.964c.527.063.674.076 1.504.127 1.968.118 2.819.121 4.663.01a23.17 23.17 0 0 0 1.79-.15c.435-.05.39-.099.39.41 0 .989-.195 1.896-.56 2.622-.556 1.105-1.54 2-2.598 2.366-.364.124-.7.179-1.221.19a3.456 3.456 0 0 1-1.35-.193c-1.008-.333-2.028-1.277-2.585-2.39-.366-.738-.502-1.361-.52-2.393l-.012-.641h.07c.038 0 .23.018.43.042Z"/><path fill="#000" fill-opacity=".7" d="M65.892 47.234a3.298 3.298 0 0 0-.33.072c-.058.018-.254.067-.437.112a19.6 19.6 0 0 0-1.369.39l-.33.121a5.982 5.982 0 0 0-.422.167l-.306.127a5.014 5.014 0 0 0-.416.209 7.929 7.929 0 0 0-2.92 2.613 7.106 7.106 0 0 0-.725 1.316c-.199.442-.418 1.202-.532 1.846-.112.626-.169 2.293-.094 2.693.064.33.28.64.572.813l.135.079h22.98l.13-.07a1.27 1.27 0 0 0 .496-.505l.096-.181.009-.908c.012-.938-.018-1.488-.102-1.945-.307-1.673-1.029-3.08-2.178-4.245a9.245 9.245 0 0 0-.617-.578c-.962-.756-2.153-1.355-3.519-1.763-.147-.046-.352-.106-.45-.14a11.202 11.202 0 0 0-.768-.2c-.286-.066-.562-.042-.716.061-.105.067-.15.14-.288.42-.398.83-1.219 1.547-2.151 1.886-1.146.417-2.542.254-3.522-.412-.56-.378-1.128-1.04-1.279-1.488-.15-.448-.42-.59-.947-.49Zm-.226 1.957c.31.475.897 1.062 1.399 1.398.725.487 1.41.753 2.376.928.286.052 1.134.067 1.489.03 1.089-.117 2.16-.547 2.93-1.167.288-.233.854-.835 1.046-1.116.057-.085.109-.158.112-.16.033-.037 1.287.374 1.732.568.836.363 1.739.965 2.21 1.482.855.935 1.255 1.64 1.565 2.766.117.423.168.844.186 1.521l.019.672H59.726v-.511c0-.59.057-1.095.183-1.637.12-.511.172-.678.274-.871a.929.929 0 0 0 .084-.206c0-.024.054-.13.118-.236.063-.109.156-.281.207-.387a.991.991 0 0 1 .145-.236c.027-.025.09-.103.135-.176.165-.263.604-.744.9-.983l.24-.203c.009-.009.102-.084.21-.172.4-.315 1.116-.705 1.688-.92.31-.115 1.146-.378 1.296-.405a1.57 1.57 0 0 0 .226-.064c.153-.054.141-.057.234.085ZM16.648 41.285c-1.057.072-1.801.285-2.393.684-.345.234-.67.637-.793.985-.06.165-.35 1.346-.522 2.117-.078.35-.193.83-.222.924-.033.116.02.1-.622.165-.632.065-1.188.08-2.902.08-1.834 0-1.845.003-2.078.127a.886.886 0 0 0-.361.444c-.049.131-.056.183-.049.345.007.172.016.21.102.381.182.372.483.58 1.298.903.32.124.512.191.944.327.755.236 1.896.495 2.913.66.232.035.452.073.49.078l.068.01.013.52c.022.887.096 1.301.341 1.976.415 1.137 1.248 2.108 2.245 2.614.425.216.68.305 1.154.41.254.056.312.06.806.06.492 0 .552-.005.8-.06a4.457 4.457 0 0 0 1.971-.938c.2-.16.543-.515.682-.704.05-.067.12-.159.155-.199a.885.885 0 0 0 .109-.178c.024-.058.078-.142.115-.191a.55.55 0 0 0 .089-.145c.009-.032.064-.15.124-.261.06-.114.128-.274.155-.356.026-.085.069-.197.09-.25.083-.183.2-.738.24-1.132.018-.167.049-.958.044-1.134 0-.016.078-.038.195-.053a22.891 22.891 0 0 0 2.851-.595c.244-.06.846-.257 1.363-.441.33-.119.724-.306.948-.448.274-.179.46-.453.516-.767a.864.864 0 0 0-.545-.949c-.104-.038-.244-.042-2.238-.056a86.88 86.88 0 0 1-2.359-.038c-.128-.013-.387-.04-.576-.058l-.345-.035a68.583 68.583 0 0 0-.308-1.348l-.177-.769a17.83 17.83 0 0 0-.25-1.003c-.309-.897-1.319-1.506-2.774-1.67a14.291 14.291 0 0 0-1.307-.032Zm.908 1.257c.99.069 1.708.374 1.938.826.058.112.118.366.093.39-.008.01-.128-.004-.263-.03-.47-.092-.769-.139-.866-.139a.558.558 0 0 0-.388.158.598.598 0 0 0-.2.424c-.024.34.222.623.597.688.077.014.257.038.396.056.14.018.39.053.554.08.164.025.343.053.396.06l.1.016.084.345c.084.346.098.446.069.446-.011 0-.173-.031-.361-.067a13.862 13.862 0 0 0-.587-.1c-.133-.02-.26-.04-.277-.045-.051-.015-.84-.102-1.13-.122a9.743 9.743 0 0 0-1.196 0c-.299.022-1.125.109-1.174.122a3.339 3.339 0 0 1-.288.045 4.56 4.56 0 0 0-.354.058c-.056.01-.217.04-.361.062l-.262.04.013-.069c.031-.145.164-.686.173-.695.016-.016.246-.054.868-.145.805-.114.873-.134 1.028-.292.306-.307.209-.851-.179-1.02-.153-.065-.306-.054-.992.075-.297.058-.4.065-.4.032 0-.067.067-.303.112-.392.12-.248.49-.504.919-.638.516-.16 1.2-.218 1.938-.17Zm.82 4.264c.31.034.591.065.622.072.034.006.186.031.344.053.343.052.85.145.968.178a.88.88 0 0 1 .155.067c.046.027.153.05.314.067.135.014.315.034.399.045.23.033.981.109 1.296.133.436.034 1.79.09 2.186.09.2 0 .361.006.361.017 0 .01-.046.03-.104.043-.06.015-.175.049-.261.073a20.709 20.709 0 0 1-2.226.513c-.672.111-.847.138-1.872.265-.98.122-2.557.225-3.467.225-.682 0-2.12-.076-2.758-.145a44.162 44.162 0 0 1-1.495-.178 24.222 24.222 0 0 0-.454-.067c-.133-.02-.26-.04-.28-.045a4.559 4.559 0 0 0-.287-.055 25.195 25.195 0 0 1-1.848-.406 15.24 15.24 0 0 0-.343-.082 3.788 3.788 0 0 1-.273-.078.64.64 0 0 0-.148-.036c-.022 0-.049-.011-.055-.022-.01-.014.084-.023.259-.025.15 0 .312-.004.36-.009.05-.004.304-.013.566-.022.786-.022 1.947-.11 2.547-.187.09-.013.29-.033.443-.05.153-.012.315-.037.361-.055.044-.018.124-.047.177-.067.131-.049 1.352-.251 1.733-.285.086-.009.286-.029.443-.047.44-.05.467-.05 1.14-.044.475.007.772.022 1.197.065Zm-4.176 2.92c.388.046.496.055 1.108.093 1.448.087 2.075.089 3.433.006.687-.04.851-.053 1.318-.109.322-.038.288-.073.288.301 0 .729-.144 1.397-.412 1.932-.41.813-1.134 1.473-1.914 1.742-.268.092-.516.132-.899.14a2.542 2.542 0 0 1-.995-.142c-.742-.245-1.493-.94-1.902-1.76-.27-.544-.37-1.003-.384-1.763l-.009-.472h.051c.03 0 .171.013.317.031Z"/></svg>