<svg xmlns="http://www.w3.org/2000/svg" width="78" height="87" fill="none"><path fill="#000" fill-opacity=".7" d="M19.565.45a1.045 1.045 0 0 0-.402.856c0 .756 1.517 4.45 1.982 4.854.712.588 1.734.034 1.734-.94 0-.673-1.471-4.435-1.89-4.838-.417-.386-.913-.37-1.424.067ZM38.114.415c-.727.353-1.765 1.646-3.158 3.864-2.617 4.232-4.413 8.75-5.156 12.95-.48 2.771-.465 7.39.03 9.91.992 5.072 3.082 9.473 6.581 13.89l1.487 1.865v9.826l-.883-1.915c-4.088-8.818-10.931-13.84-20.887-15.335-2.307-.353-4.18-.37-4.862-.067-.697.319-1.487 1.293-1.719 2.133-.217.79-.015 2.905.573 5.895 1.347 6.92 4.026 12.53 8.067 16.898l1.719 1.88-.62.639c-.758.806-2.338 3.36-2.694 4.367-.14.403-.31.74-.371.74-.062 0-.233-.32-.372-.706-.387-1.109-1.703-3.259-2.694-4.367-2.307-2.637-5.977-4.451-9.6-4.77-1.068-.085-1.27-.051-1.889.302A3.383 3.383 0 0 0 .01 61.1c-.139 1.915 1.301 6.45 2.834 8.97 2.322 3.796 6.007 6.147 10.668 6.802l1.47.202v3.93c0 2.67.063 4.048.187 4.3.495 1.024 1.595 1.075 2.06.1.185-.369.231-1.276.231-4.4v-3.93l1.363-.202c2.663-.37 5.28-1.36 7.06-2.687 1.704-1.277 3.469-3.427 4.522-5.526.433-.874.464-.89.99-.807 2.029.37 3.686.605 5.002.706l1.502.117V83.575h-1.75c-1.641 0-1.78.034-2.09.386-.45.52-.434 1.21.046 1.713l.372.42h9.011l.372-.42c.495-.52.51-1.243.03-1.73-.324-.335-.526-.37-1.935-.37h-1.579V68.678l1.44-.118c3.004-.235 6.224-.907 8.531-1.78l.914-.337 1.95 2a216.357 216.357 0 0 1 3.655 3.88c1.935 2.132 1.92 2.132-.666 1.175-1.455-.537-2.617-1.26-3.87-2.385-1.007-.94-1.55-1.025-2.122-.386-.759.806-.403 1.595 1.347 3.023 1.192.974 3.407 2.15 4.877 2.587.604.184 1.781.42 2.586.52l1.487.202v3.947c0 3.191.046 4.031.232 4.418.418.89 1.595.89 2.013 0 .185-.387.232-1.227.232-4.418v-3.93l1.502-.202c6.766-.957 11.334-5.476 13.068-12.883.248-1.075.449-2.267.449-2.654-.016-1.427-.913-2.737-2.183-3.157-.496-.152-.914-.152-1.967.016-5.512.84-9.491 3.864-11.581 8.751-.233.555-.48 1.008-.527 1.008-.062 0-.232-.336-.371-.756-.357-1.007-1.642-3.107-2.493-4.098l-.697-.806 1.982-2.167c3.112-3.41 5.326-7.374 6.813-12.245 1.177-3.83 2.028-8.952 1.718-10.246-.232-.907-.805-1.696-1.564-2.116-.727-.403-2.152-.453-4.459-.151-5.31.705-9.383 2.25-13.176 5.022-3.546 2.57-6.225 5.946-8.3 10.43l-.82 1.764.016-4.787v-4.787l1.3-1.595c4.521-5.493 7.277-12.11 7.649-18.309.418-7.306-1.796-13.89-6.906-20.491-1.904-2.453-2.849-2.923-4.32-2.2Zm4.723 7.072c2.647 4.283 3.964 8.348 4.15 12.782l.092 1.948-.913.756c-.511.42-2.013 1.63-3.345 2.704l-2.446 1.965V15.835l.016-11.792.619.756c.34.42 1.161 1.63 1.827 2.688Zm-4.94 4.552v7.558l-.371-.302c-.201-.168-1.332-1.31-2.508-2.537l-2.153-2.217.295-.89c.48-1.478 1.502-3.813 2.384-5.492.82-1.563 2.152-3.696 2.292-3.696.03 0 .062 3.41.062 7.576Zm-1.579 9.607 1.58 1.646-.031 7.827-.047 7.828-1.13-1.663c-4.057-5.913-5.605-12.195-4.66-18.762l.17-1.159 1.27 1.327c.68.722 1.966 2.05 2.848 2.956Zm9.863 6.097c-.882 3.292-2.462 6.618-4.598 9.726l-1.13 1.629-.047-4.082c-.031-3.124.015-4.132.155-4.283.573-.605 5.93-4.77 5.96-4.653.032.084-.123.824-.34 1.663ZM16.685 38.157c1.61.269 3.422.74 4.924 1.26l.96.353v3.846c0 2.116-.016 3.846-.047 3.846-.015 0-2.043-2.183-4.52-4.87l-4.475-4.872.836.101c.464.05 1.517.202 2.322.336Zm40.8 7.458c-3.995 4.333-7.324 7.894-7.386 7.894-.078 0-.124-2.351-.124-5.207v-5.207l1.146-.823c3.499-2.469 8.097-4.03 13.408-4.535.124 0-3.05 3.527-7.045 7.878Zm-42.27-2.352 3.25 3.528h-5.124l-.403-1.646c-.433-1.697-1.115-5.409-1.006-5.409.015 0 1.502 1.579 3.282 3.527Zm50.956-2.57c-.388 2.923-1.518 7.089-2.648 9.742l-.589 1.395h-7.772l5.496-5.963c3.02-3.276 5.528-5.963 5.559-5.963.031 0 0 .353-.046.79Zm-39.979.975c2.71 1.763 5.233 4.3 6.844 6.886 2.462 3.914 4.273 9.457 4.645 14.193l.093 1.26-6.441-6.97-6.442-6.971V45.58c0-3.594.047-4.501.202-4.501.108 0 .604.269 1.099.588Zm17.868 18.51c-1.982 2.15-3.608 3.88-3.639 3.846-.03-.034.062-.907.186-1.965.743-6.131 2.989-11.859 6.147-15.672l.82-1.007.047 5.442.031 5.459-3.592 3.896Zm-15.53-2.47c5.11 5.543 7.479 8.23 7.277 8.23-.758-.016-3.654-.537-5.063-.923-4.397-1.21-7.99-3.393-11.04-6.702-.99-1.075-2.136-2.536-2.71-3.46-.897-1.445-2.631-4.871-2.631-5.224 0-.084 1.486-.151 3.298-.151h3.282l7.587 8.23Zm32.903-3.241c0 .302-1.92 2.821-3.097 4.081-3.283 3.51-7.308 5.728-12.31 6.803a40.632 40.632 0 0 1-2.864.504l-1.006.117 5.341-5.811 5.342-5.812h4.29c2.368 0 4.304.05 4.304.118ZM6.389 61.353c4.288 1.445 7.138 4.888 8.19 9.927l.217 1.058-1.331-1.344c-.744-.739-3.19-3.342-5.45-5.794-3.98-4.334-4.073-4.452-3.484-4.35.34.05 1.176.285 1.858.503Zm62.94 4.518c-2.601 2.822-5.047 5.426-5.45 5.795l-.712.655.216-1.041c.837-4.014 3.004-7.29 5.93-8.92 1.332-.755 3.36-1.46 4.584-1.612.077-.016-1.967 2.302-4.568 5.123ZM12.272 73.33l.774.857-.619-.118c-1.1-.201-3.143-1.092-4.134-1.78-2.415-1.68-4.289-4.384-5.218-7.61a43.222 43.222 0 0 1-.418-1.41c-.062-.202 7.633 7.844 9.615 10.061Zm62.879-9.456c-.836 3.41-2.834 6.533-5.31 8.297-1.131.79-3.16 1.697-4.305 1.898-.589.1-.403-.117 4.567-5.425 2.85-3.057 5.203-5.543 5.218-5.56 0 0-.062.353-.17.79Zm-52.025.587c.635.387 1.146.756 1.146.807 0 .134-6.41 7.054-6.534 7.054-.14 0 .263-1.763.681-3.04.558-1.663 1.44-3.242 2.478-4.434.51-.605.975-1.092 1.006-1.092.047 0 .604.32 1.223.705Zm35.628 2.94a18.732 18.732 0 0 1 1.424 4.216l.14.705-.883-.823c-.48-.453-1.966-2.032-3.313-3.51l-2.447-2.67 1.208-.757 1.208-.772 1.022 1.159c.65.722 1.254 1.612 1.64 2.452Zm-31.075-.672c.387.151.727.302.758.32.108.083-.913 1.847-1.564 2.703-1.656 2.15-4.397 3.864-6.859 4.317-.604.1-.51-.017 3.02-3.762 1.997-2.117 3.7-3.864 3.793-3.864.077 0 .464.135.851.286ZM56.973.382c-.418.403-1.889 4.165-1.889 4.837 0 1.36 1.672 1.613 2.23.353.852-1.965 1.486-3.763 1.486-4.233 0-.99-1.145-1.596-1.827-.957ZM11.73 7.15c-.186.202-.31.555-.31.908 0 .487.109.689.666 1.159 1.425 1.226 3.19 2.469 3.546 2.469.82 0 1.44-1.058 1.069-1.83-.093-.169-.96-.942-1.936-1.68-1.904-1.479-2.446-1.663-3.035-1.025ZM63.167 8.192c-1.89 1.462-2.184 1.881-1.874 2.688.202.537.573.806 1.1.806.325 0 2.926-1.864 3.808-2.738.434-.437.465-1.327.031-1.797-.588-.638-1.16-.437-3.065 1.041ZM7.364 16.725c-.372.42-.449.605-.356.974.17.773.542.991 2.74 1.63 1.982.554 2.153.587 2.57.352.496-.269.651-.571.651-1.193 0-.772-.449-1.058-2.632-1.68-1.146-.318-2.183-.587-2.292-.587-.123 0-.418.235-.68.504ZM67.549 16.826c-2.106.621-2.555.907-2.555 1.662 0 .622.155.924.65 1.193.418.235.589.202 2.57-.353 2.215-.638 2.819-1.007 2.819-1.78 0-.437-.821-1.327-1.193-1.31-.155 0-1.177.268-2.291.588Z"/></svg>