<svg xmlns="http://www.w3.org/2000/svg" width="74" height="76" fill="none"><path fill="#000" fill-opacity=".7" d="M35.317.602c-3.753.25-6.396 1.005-8.497 2.41-1.227.825-2.384 2.246-2.816 3.47-.213.582-1.243 4.744-1.857 7.46-.275 1.233-.684 2.93-.787 3.26-.118.408.071.353-2.21.58-2.243.228-4.217.283-10.307.283-6.514 0-6.554.008-7.38.448-.527.29-1.03.903-1.282 1.562-.173.463-.197.644-.173 1.217.023.605.055.738.362 1.343.645 1.311 1.715 2.042 4.61 3.18 1.133.44 1.817.676 3.352 1.155 2.682.832 6.734 1.743 10.345 2.324.826.125 1.605.259 1.74.275l.243.039.047 1.83c.079 3.125.339 4.585 1.212 6.965 1.471 4.004 4.43 7.428 7.97 9.21 1.51.762 2.415 1.076 4.099 1.445.904.196 1.11.212 2.864.212 1.746 0 1.959-.016 2.84-.212 2.745-.589 4.854-1.586 7.002-3.306.708-.565 1.927-1.814 2.423-2.481.173-.236.425-.557.55-.699a3.12 3.12 0 0 0 .386-.628c.087-.204.276-.503.41-.675.141-.173.283-.4.314-.51.032-.11.228-.527.44-.92.213-.4.457-.965.551-1.256.095-.298.244-.69.323-.88.291-.643.708-2.598.85-3.988.063-.59.173-3.377.157-3.997 0-.055.275-.134.692-.189 2.738-.377 6.68-1.154 8.946-1.782l1.18-.314c.865-.212 3.005-.903 4.838-1.555 1.173-.416 2.573-1.076 3.368-1.578.975-.628 1.636-1.594 1.833-2.701.252-1.406-.574-2.843-1.935-3.346-.37-.133-.866-.149-7.947-.196-4.154-.031-7.922-.094-8.379-.133-.456-.047-1.377-.142-2.045-.204-.669-.071-1.228-.126-1.228-.126-.007 0-.039-.134-.07-.299-.048-.25-.693-3.093-1.023-4.452-.197-.832-.488-2.104-.63-2.709-.306-1.366-.755-3.133-.889-3.533-1.093-3.165-4.68-5.308-9.85-5.89-.77-.086-3.886-.164-4.642-.11Zm3.226 4.428c3.517.244 6.066 1.32 6.884 2.913.205.393.417 1.288.33 1.375-.03.031-.456-.016-.936-.11-1.668-.322-2.73-.487-3.076-.487a1.99 1.99 0 0 0-1.377.557c-.456.432-.66.872-.708 1.492-.086 1.202.787 2.199 2.117 2.427.275.047.912.133 1.408.196a70.4 70.4 0 0 1 1.967.283c.582.086 1.22.188 1.408.212l.354.055.3 1.217c.298 1.217.345 1.57.243 1.57-.04 0-.614-.11-1.282-.235a49.015 49.015 0 0 0-2.085-.354c-.472-.07-.92-.141-.984-.157-.18-.055-2.982-.361-4.012-.432a34.85 34.85 0 0 0-4.249 0c-1.062.079-3.996.385-4.17.432-.063.024-.527.094-1.022.157-.496.063-1.062.157-1.26.204-.196.04-.77.142-1.282.22l-.928.142.047-.244c.11-.51.582-2.418.614-2.45.055-.055.873-.188 3.084-.51 2.856-.4 3.1-.471 3.65-1.029 1.086-1.083.74-3-.637-3.596-.543-.228-1.085-.189-3.524.267-1.055.204-1.417.228-1.417.11 0-.236.236-1.068.394-1.382.425-.872 1.739-1.775 3.265-2.246 1.833-.565 4.264-.77 6.884-.597Zm2.911 15.03c1.102.117 2.1.227 2.21.25.119.024.662.11 1.22.19 1.22.18 3.022.51 3.438.628.166.047.41.157.551.235.165.094.543.173 1.117.236.48.047 1.118.117 1.416.157.819.117 3.486.384 4.603.47 1.55.119 6.357.315 7.765.315.708 0 1.283.023 1.283.063 0 .031-.166.102-.37.149-.212.055-.621.173-.928.259-.74.22-1.944.542-2.479.668-2.627.62-3.823.871-5.428 1.138-2.384.393-3.006.487-6.648.934-3.478.432-9.08.794-12.313.794-2.423 0-7.53-.267-9.795-.51-2.235-.236-4.564-.511-5.31-.629a86.442 86.442 0 0 0-1.614-.236c-.472-.07-.92-.14-.991-.157-.063-.023-.527-.11-1.023-.196-1.975-.346-3.997-.785-6.561-1.43-.347-.085-.897-.219-1.22-.29a13.604 13.604 0 0 1-.968-.274c-.204-.071-.44-.126-.527-.126-.078 0-.173-.04-.196-.079-.032-.047.299-.078.92-.086.535 0 1.11-.016 1.283-.031a89.357 89.357 0 0 1 2.006-.079c2.793-.078 6.915-.385 9.047-.66.323-.047 1.031-.117 1.574-.172.543-.047 1.117-.134 1.282-.197.158-.062.441-.164.63-.235.464-.173 4.799-.887 6.152-1.005.307-.032 1.015-.102 1.574-.165 1.565-.18 1.66-.18 4.052-.157 1.683.023 2.737.078 4.248.227Zm-14.83 10.286c1.377.165 1.762.196 3.934.33 5.145.306 7.371.314 12.194.023 2.44-.14 3.021-.188 4.681-.384 1.141-.134 1.023-.26 1.023 1.06 0 2.567-.511 4.923-1.463 6.808-1.456 2.866-4.028 5.19-6.798 6.14-.952.322-1.833.463-3.194.495-1.393.04-2.282-.087-3.532-.503-2.636-.863-5.303-3.313-6.759-6.203-.96-1.916-1.314-3.534-1.36-6.211l-.032-1.665h.18c.103 0 .606.047 1.126.11Z"/><path fill="#000" fill-opacity=".7" d="M25.247 48.179a8.795 8.795 0 0 0-.866.188c-.15.047-.66.173-1.14.29-.992.236-3.053.817-3.58 1.014-.197.07-.583.212-.866.314-.283.094-.779.29-1.101.432l-.803.33c-.118.039-.605.282-1.085.541-3.171 1.673-5.68 3.903-7.64 6.785-.85 1.248-1.22 1.908-1.896 3.415-.52 1.147-1.093 3.118-1.392 4.79-.292 1.626-.441 5.952-.244 6.989a3.219 3.219 0 0 0 1.494 2.112l.355.204H66.59l.338-.18a3.306 3.306 0 0 0 1.298-1.312l.252-.47.024-2.356c.031-2.435-.048-3.864-.268-5.05-.802-4.342-2.69-7.993-5.696-11.016-.582-.59-1.306-1.257-1.613-1.5-2.518-1.963-5.633-3.518-9.205-4.578-.385-.118-.92-.275-1.18-.361-.48-.15-1.094-.306-2.006-.518-.748-.173-1.471-.11-1.873.157-.275.172-.393.36-.755 1.091-1.039 2.152-3.186 4.013-5.625 4.892-2.998 1.084-6.648.66-9.213-1.068-1.464-.981-2.95-2.701-3.344-3.863-.393-1.162-1.102-1.531-2.478-1.272Zm-.59 5.08c.81 1.233 2.344 2.756 3.658 3.628 1.896 1.264 3.69 1.955 6.215 2.41.748.134 2.966.173 3.895.08 2.848-.307 5.649-1.422 7.663-3.032.755-.605 2.234-2.167 2.738-2.897.15-.22.283-.409.29-.417.087-.094 3.368.974 4.533 1.477 2.187.942 4.547 2.505 5.782 3.847 2.235 2.427 3.281 4.256 4.091 7.177.307 1.1.441 2.191.488 3.95l.047 1.743H9.118v-1.327c0-1.531.15-2.842.48-4.248.315-1.327.448-1.759.716-2.261.118-.236.22-.472.22-.534 0-.063.142-.338.307-.613.165-.282.41-.73.543-1.005.134-.275.299-.55.378-.612.07-.063.236-.267.354-.456.432-.683 1.581-1.931 2.352-2.552.323-.267.606-.502.63-.526.023-.023.267-.22.55-.447 1.047-.817 2.92-1.83 4.414-2.388.81-.298 2.997-.981 3.39-1.052.166-.031.426-.102.591-.165.401-.141.37-.149.614.22Z"/></svg>