<svg xmlns="http://www.w3.org/2000/svg" width="61" height="70" fill="none"><g clip-path="url(#a)"><path fill="#000" fill-opacity=".65" d="M30.52.199c-.905.3-1.75 1.108-2.518 2.421-1.688 2.9-3.776 5.8-6.586 9.139-1.765 2.093-2.763 3.174-6.678 7.169C9.303 24.496 7.92 26 5.818 28.71c-1.674 2.148-2.211 2.968-3.27 4.939-1.106 2.052-.37 4.268-.37 4.268-.544 3.889 15.25 25.278 1.09 13.611 1.09 4.375 1.107 6.432 5.65 10.481 7.585 6.759 18.486 9.481 28.88 7.197a32.711 32.711 0 0 0 8.336-3.051c6.909-3.667 11.99-9.741 13.971-16.65.768-2.723.967-4.378.875-7.32-.092-2.64-.338-4.227-1.028-6.635-2.856-9.96-5.59-18.515-14.202-26.314C41.958 5.816 32.792-.554 30.52.2Z"/><g fill="#fff" clip-path="url(#b)"><path d="M43.812 75.953c5.664-.606 11.046-1.956 14.897-3.739 2.195-1.018 5.052-2.813 4.897-3.07a475.53 475.53 0 0 0-2.562-3.567c-.034-.03-.851.428-1.815 1.027-4.867 2.948-10.51 4.471-18.51 4.98-10.034.638-18.825-.906-24.828-4.38-.805-.46-1.507-.785-1.572-.707-.258.28-2.403 3.593-2.4 3.716.004.183 3.223 1.993 4.61 2.611 3.744 1.633 9.118 2.838 14.789 3.289 2.603.198 9.984.114 12.494-.16Z"/><path d="M42.48 67.421c5.233-.598 9.922-1.875 14.23-3.925 6.323-2.99 11.34-7.41 14.984-13.228.463-.743.813-1.407.778-1.499-.07-.182-3.958-2.302-4.223-2.312-.1.002-.483.59-.865 1.316-1.843 3.43-5.306 6.996-9.288 9.592-5.71 3.698-12.356 5.56-20.398 5.703-5.61.1-9.877-.53-14.482-2.146-6.473-2.273-12.046-6.505-16.332-12.413-.376-.53-.75-.951-.832-.95-.166.003-3.482 1.99-3.839 2.303-.195.171-.09.4.678 1.457 2.22 3.083 5.726 6.617 8.703 8.753 5.601 4.017 11.794 6.34 19.463 7.322 2.026.255 9.193.28 11.422.027Z"/><path d="M42.336 58.762c10.409-1.639 18.965-7.652 23.486-16.486 2.331-4.587 3.095-9.681 2.406-16.097-.582-5.33-2.494-13.163-3.168-12.952-.115.032-1.12.25-2.257.499a54.145 54.145 0 0 0-2.24.499c-.132.033-.021.536.332 1.555.62 1.795 1.457 5.208 1.912 7.817.476 2.792.629 9.646.256 11.474-1.705 8.172-8.319 15.222-16.93 18.037-3.171 1.036-4.458 1.227-8.66 1.302-3.326.059-4.006.04-5.468-.24-2.51-.476-4.11-.953-6.5-1.997-2.925-1.264-4.94-2.56-7.558-4.901-3.732-3.316-6.296-6.974-7.47-10.627-.32-.973-.384-1.615-.448-3.772-.074-2.554-.059-2.631.423-4.017 1.448-4.112 3.944-5.778 7.83-5.235 1.494.203 2.98.804 3.808 1.555.929.84 1.83 2.66 2.685 5.37 1.035 3.348 1.367 4.169 2.245 5.684 1.429 2.454 3.715 4.05 6.675 4.656 1.78.367 5.22.275 7.097-.187 5.712-1.417 8.582-5.6 8.433-12.3-.087-3.917-.794-6.705-2.432-9.645-4.224-7.562-11.32-13.252-19.011-15.258-1.865-.487-3.826-.82-3.972-.68-.113.11-1.219 3.97-1.213 4.215 0 .061.5.175 1.115.271 3.006.452 6.762 1.9 9.299 3.554 3.813 2.504 7.546 6.616 9.69 10.71 1.191 2.244 1.854 6.732 1.401 9.433-.51 3.1-2.014 4.719-4.946 5.352-2.866.617-5.742.056-7.015-1.36-.747-.843-1.287-2.043-2.247-4.98-1.617-4.976-2.341-6.294-4.401-8.125-2.263-1.995-5.015-2.926-8.672-2.892-2.151.023-3.14.24-5.008 1.1-1.097.508-1.651.9-2.705 1.899-2.885 2.76-4.245 6.35-4.144 10.924.078 3.473.797 6.047 2.608 9.335 1.691 3.092 3.8 5.642 6.874 8.388 5.033 4.471 10.702 7.095 17.662 8.196 1.927.302 8.117.254 10.228-.074Z"/><path d="M39.862 50.22c10.67-1.031 17.476-7.595 18.896-18.195.252-2.025.104-5.741-.36-7.952-1.596-7.777-5.59-14.654-11.566-19.92l-1.553-1.365-.552.5c-.308.28-1.053 1.043-1.667 1.712l-1.116 1.183 1.402 1.26c5.32 4.743 8.626 10.5 10.11 17.636.87 4.178.328 8.81-1.478 12.468-2.312 4.724-6.014 7.193-12.053 8.05-4.77.666-9.56-.412-12.876-2.879-3.653-2.72-6.553-8.102-7.199-13.31-.063-.626-.158-1.175-.176-1.22-.034-.046-1.125.004-2.43.12l-2.363.194-.035.69c-.095 1.639.938 5.66 2.138 8.302 3.029 6.665 8.19 10.95 14.841 12.348 2.378.493 5.378.64 8.037.378Z"/><path d="M35.649 31.96c.082-.032 1.04-.126 2.114-.19l1.934-.142-.122-1.008c-.694-5.91-3.056-10.858-6.875-14.386-3.955-3.665-8.976-5.427-15.232-5.362-2.697.032-6.347.434-6.456.711-.048.093.156 1.084.43 2.211l.509 2.057.496-.024c.265-.004 1.487-.133 2.692-.262 4.888-.545 9.329.417 12.642 2.76 3.531 2.494 6.19 7.39 6.696 12.324.147 1.39.148 1.406.577 1.383.232-.004.496-.04.595-.072Z"/></g></g><defs><clipPath id="a"><path fill="#fff" d="M0 0h61v70H0z"/></clipPath><clipPath id="b"><path fill="#fff" d="M73.07 75.583 2.728 76.83 1.089 3.191l70.342-1.246z"/></clipPath></defs></svg>