<svg width="85" height="78" viewBox="0 0 85 78" fill="none" xmlns="http://www.w3.org/2000/svg">
<path d="M36.9595 0.0191765C33.0865 0.28051 30.3584 1.0645 28.1906 2.52633C26.924 3.38382 25.7304 4.86197 25.2839 6.13596C25.0646 6.74029 24.001 11.0686 23.3677 13.8942C23.0835 15.1764 22.6613 16.9404 22.5558 17.2834C22.434 17.708 22.6288 17.6509 20.2742 17.8877C17.9602 18.1245 15.9223 18.1817 9.6379 18.1817C2.9151 18.1817 2.8745 18.1899 2.02197 18.6472C1.47797 18.9493 0.958336 19.5863 0.698517 20.2723C0.519892 20.7542 0.495534 20.942 0.519892 21.5382C0.54425 22.167 0.576727 22.3058 0.893381 22.9346C1.55917 24.2985 2.6634 25.058 5.65131 26.2421C6.8205 26.6994 7.52688 26.9444 9.11015 27.4426C11.8788 28.3083 16.0603 29.2556 19.7871 29.8599C20.6396 29.9906 21.4434 30.1294 21.5814 30.1458L21.8331 30.1866L21.8819 32.0894C21.9631 35.3397 22.231 36.8587 23.1322 39.3332C24.6506 43.4981 27.7034 47.0588 31.3571 48.9126C32.916 49.7048 33.8498 50.0314 35.5873 50.4152C36.521 50.6194 36.7321 50.6357 38.5427 50.6357C40.3452 50.6357 40.5644 50.6194 41.4738 50.4152C44.3075 49.8027 46.4834 48.7656 48.7 46.9771C49.4308 46.3891 50.6893 45.0906 51.2008 44.3965C51.3794 44.1515 51.6392 43.8166 51.7691 43.6696C51.899 43.5145 52.0777 43.2205 52.167 43.0163C52.2563 42.804 52.4512 42.4936 52.5892 42.314C52.7353 42.1343 52.8815 41.8975 52.914 41.7832C52.9464 41.6688 53.1494 41.236 53.3686 40.8277C53.5879 40.4112 53.8396 39.8232 53.937 39.521C54.0344 39.2107 54.1887 38.8023 54.2699 38.6063C54.5703 37.9367 55.0006 35.9032 55.1468 34.4577C55.2117 33.8452 55.3254 30.9461 55.3092 30.3009C55.3092 30.2438 55.5933 30.1621 56.0237 30.1049C58.8492 29.7129 62.917 28.9044 65.2553 28.2511C65.8399 28.0959 66.3839 27.9489 66.4732 27.9244C67.3664 27.7039 69.5748 26.9853 71.4666 26.3075C72.6764 25.8746 74.1217 25.1886 74.9417 24.666C75.9485 24.0126 76.6305 23.0081 76.8335 21.8567C77.0933 20.3948 76.2408 18.9003 74.8362 18.3777C74.4546 18.2389 73.943 18.2225 66.6356 18.1735C62.3486 18.1409 58.4595 18.0755 57.9885 18.0347C57.5176 17.9857 56.5677 17.8877 55.8775 17.8224C55.1874 17.7489 54.6109 17.6917 54.6109 17.6917C54.6028 17.6917 54.5703 17.5529 54.5378 17.3814C54.4891 17.12 53.8233 14.1637 53.4823 12.7509C53.2793 11.8852 52.9789 10.5623 52.8328 9.93343C52.5161 8.51244 52.0533 6.67495 51.9153 6.25846C50.7867 2.96732 47.0843 0.737839 41.7499 0.133511C40.9542 0.0436783 37.7389 -0.0379868 36.9595 0.0191765ZM40.2884 4.62514C43.9177 4.8783 46.5484 5.99713 47.3928 7.65495C47.6039 8.06327 47.8231 8.99427 47.7338 9.0841C47.7013 9.11677 47.2629 9.06777 46.7676 8.96977C45.0463 8.63494 43.9502 8.46344 43.593 8.46344C43.0652 8.46344 42.5456 8.67577 42.1721 9.04327C41.7012 9.49243 41.4901 9.94976 41.4413 10.5949C41.352 11.8444 42.2533 12.8816 43.6254 13.1184C43.9096 13.1674 44.5673 13.2572 45.0788 13.3226C45.5903 13.3879 46.5078 13.5186 47.1086 13.6166C47.7095 13.7064 48.3671 13.8126 48.562 13.8371L48.9274 13.8942L49.2359 15.16C49.5444 16.4259 49.5932 16.7934 49.4876 16.7934C49.447 16.7934 48.8543 16.679 48.1641 16.5484C47.474 16.4177 46.5078 16.2462 46.0125 16.1809C45.5254 16.1074 45.0626 16.0339 44.9976 16.0175C44.8109 15.9604 41.9204 15.6419 40.8567 15.5684C39.6632 15.4785 37.6658 15.4785 36.4723 15.5684C35.3762 15.65 32.3477 15.9685 32.1691 16.0175C32.1041 16.042 31.6251 16.1155 31.1135 16.1809C30.602 16.2462 30.0174 16.3442 29.8145 16.3932C29.6115 16.434 29.0188 16.5402 28.491 16.6219L27.5329 16.7689L27.5816 16.5157C27.6953 15.9849 28.1825 14.0004 28.2149 13.9677C28.2718 13.9106 29.1162 13.7717 31.3977 13.4369C34.345 13.0204 34.5967 12.9469 35.1651 12.3671C36.2856 11.2401 35.9283 9.24743 34.5074 8.62677C33.9472 8.38994 33.387 8.43077 30.87 8.90443C29.782 9.11677 29.4085 9.14127 29.4085 9.01877C29.4085 8.77377 29.6521 7.90811 29.8145 7.58145C30.2529 6.67495 31.6088 5.73579 33.184 5.2458C35.0758 4.65781 37.5847 4.44547 40.2884 4.62514ZM43.2925 20.256C44.4293 20.3785 45.4604 20.4928 45.5741 20.5173C45.6959 20.5418 46.2561 20.6317 46.8326 20.7133C48.0911 20.9012 49.9504 21.2442 50.3807 21.3667C50.5512 21.4157 50.8029 21.53 50.9491 21.6117C51.1196 21.7097 51.5093 21.7913 52.102 21.8567C52.5973 21.9057 53.255 21.9792 53.5635 22.02C54.4079 22.1425 57.1604 22.4202 58.3133 22.51C59.9128 22.6325 64.8737 22.8366 66.3271 22.8366C67.0578 22.8366 67.6506 22.8611 67.6506 22.902C67.6506 22.9346 67.48 23.0081 67.2689 23.0571C67.0497 23.1143 66.6275 23.2368 66.3109 23.3266C65.5476 23.5553 64.3054 23.8901 63.7533 24.0208C61.0414 24.666 59.8073 24.9273 58.1509 25.205C55.6908 25.6133 55.0493 25.7113 51.2901 26.1768C47.7013 26.6259 41.9204 27.0016 38.5833 27.0016C36.0826 27.0016 30.8131 26.7239 28.4748 26.4708C26.1689 26.2258 23.7655 25.94 22.9942 25.8175C22.572 25.7521 21.825 25.6378 21.3297 25.5725C20.8426 25.499 20.3798 25.4255 20.3067 25.4091C20.2418 25.3846 19.7627 25.2948 19.2512 25.205C17.2132 24.8456 15.1266 24.3883 12.4797 23.7186C12.1224 23.6288 11.5541 23.49 11.2212 23.4165C10.8883 23.3348 10.4336 23.2041 10.2225 23.1306C10.0114 23.0571 9.76781 23 9.6785 23C9.59731 23 9.49988 22.9591 9.47552 22.9183C9.44304 22.8693 9.78405 22.8366 10.4255 22.8285C10.9776 22.8285 11.5703 22.8121 11.7489 22.7958C11.9276 22.7795 12.8613 22.7468 13.8194 22.7141C16.7017 22.6325 20.9563 22.314 23.1566 22.0282C23.4895 21.9792 24.2202 21.9057 24.7805 21.8485C25.3407 21.7995 25.9334 21.7097 26.1039 21.6443C26.2663 21.579 26.5586 21.4728 26.7535 21.3993C27.2325 21.2197 31.7063 20.4765 33.1028 20.354C33.4194 20.3213 34.1502 20.2478 34.7266 20.1825C36.3424 19.9947 36.4398 19.9947 38.9081 20.0192C40.6456 20.0437 41.7336 20.1008 43.2925 20.256ZM27.9876 30.9542C29.4085 31.1257 29.8063 31.1584 32.0473 31.2972C37.3573 31.6157 39.6551 31.6239 44.6322 31.3217C47.1492 31.1747 47.7501 31.1257 49.4632 30.9216C50.6405 30.7827 50.5188 30.6521 50.5188 32.0241C50.5188 34.6945 49.991 37.1445 49.0086 39.1045C47.5065 42.0853 44.8515 44.5026 41.9935 45.4908C41.011 45.8256 40.1016 45.9726 38.697 46.0053C37.2599 46.0461 36.3424 45.9154 35.0514 45.4826C32.3314 44.5843 29.579 42.0363 28.0769 39.031C27.0864 37.0384 26.721 35.356 26.6723 32.5712L26.6398 30.8399H26.8265C26.9321 30.8399 27.4517 30.8889 27.9876 30.9542Z" fill="black" fill-opacity="0.7"/>
<path d="M26.5666 49.5005C26.2337 49.5577 25.8278 49.6475 25.6735 49.6965C25.5192 49.7455 24.9915 49.8762 24.4962 49.9987C23.4732 50.2437 21.3459 50.848 20.8019 51.0522C20.5989 51.1257 20.2011 51.2727 19.9088 51.3788C19.6165 51.4768 19.105 51.681 18.7721 51.828C18.4392 51.9668 18.0657 52.122 17.9439 52.171C17.8221 52.2118 17.3187 52.465 16.8234 52.7345C13.5513 54.474 10.9613 56.7933 8.93956 59.7904C8.06267 61.0889 7.68107 61.7749 6.9828 63.3429C6.44693 64.5352 5.85421 66.5851 5.54568 68.3245C5.24526 70.015 5.091 74.5148 5.29398 75.5928C5.46449 76.483 6.04908 77.3241 6.83665 77.7896L7.20202 78.002H38.2179H69.2337L69.5829 77.8141C70.1269 77.5201 70.6384 76.9975 70.9226 76.4503L71.1824 75.9603L71.2067 73.5103C71.2392 70.9787 71.158 69.4924 70.9307 68.2592C70.1025 63.7431 68.1539 59.9456 65.0523 56.8015C64.4515 56.189 63.7045 55.4948 63.3878 55.2416C60.7896 53.2 57.5744 51.583 53.8882 50.4805C53.4904 50.358 52.9382 50.1947 52.6703 50.1049C52.175 49.9497 51.5417 49.7864 50.5999 49.5659C49.8285 49.3862 49.0816 49.4515 48.6675 49.7292C48.3833 49.9089 48.2615 50.1049 47.888 50.8644C46.8163 53.102 44.5997 55.0375 42.0827 55.9521C38.9892 57.0791 35.2219 56.6381 32.5749 54.8415C31.0648 53.8207 29.5302 52.0322 29.1242 50.8235C28.7183 49.6149 27.9875 49.231 26.5666 49.5005ZM25.9577 54.7843C26.794 56.0665 28.3773 57.6508 29.7332 58.5573C31.6899 59.8721 33.5411 60.5908 36.1475 61.0644C36.9188 61.2033 39.2084 61.2441 40.1665 61.1461C43.1057 60.8276 45.9962 59.6679 48.0748 57.9938C48.8542 57.365 50.3806 55.7398 50.9003 54.9803C51.0546 54.7517 51.1926 54.5557 51.2007 54.5475C51.29 54.4495 54.6758 55.5601 55.8774 56.0828C58.1346 57.0628 60.5704 58.688 61.8451 60.0844C64.151 62.6079 65.2309 64.5107 66.0672 67.5487C66.3839 68.692 66.5219 69.8272 66.5706 71.6565L66.6193 73.4695H38.2666H9.922V72.0893C9.922 70.4969 10.0763 69.133 10.4173 67.6712C10.7421 66.2911 10.8801 65.8419 11.1561 65.3192C11.2779 65.0742 11.3835 64.8292 11.3835 64.7639C11.3835 64.6986 11.5296 64.4127 11.7001 64.1269C11.8706 63.8329 12.1223 63.3674 12.2604 63.0816C12.3984 62.7957 12.5689 62.5099 12.6501 62.4446C12.7232 62.3793 12.8937 62.1669 13.0155 61.9709C13.462 61.2604 14.6475 59.9619 15.4431 59.3168C15.776 59.0391 16.0683 58.7941 16.0927 58.7696C16.1171 58.7451 16.3688 58.541 16.661 58.3041C17.7409 57.4548 19.6733 56.4013 21.216 55.8215C22.0523 55.5111 24.3095 54.8006 24.7154 54.7272C24.8859 54.6945 25.1539 54.621 25.3244 54.5557C25.7385 54.4087 25.706 54.4005 25.9577 54.7843Z" fill="black" fill-opacity="0.7"/>
<path d="M69.7421 28.903C68.3073 28.9998 67.2967 29.2902 66.4936 29.8318C66.0244 30.1494 65.5822 30.697 65.4168 31.169C65.3356 31.3929 64.9416 32.9963 64.707 34.0431C64.6017 34.518 64.4453 35.1715 64.4062 35.2986C64.3611 35.4559 64.4332 35.4347 63.561 35.5224C62.7037 35.6102 61.9488 35.6314 59.6207 35.6314C57.1302 35.6314 57.1152 35.6344 56.7994 35.8038C56.5979 35.9157 56.4054 36.1517 56.3091 36.4058C56.2429 36.5843 56.2339 36.6539 56.2429 36.8748C56.252 37.1077 56.264 37.1592 56.3813 37.3921C56.6279 37.8973 57.037 38.1787 58.1439 38.6174C58.577 38.7868 58.8387 38.8775 59.4252 39.0621C60.4509 39.3828 61.9999 39.7337 63.3805 39.9576C63.6963 40.006 63.9941 40.0574 64.0452 40.0635L64.1385 40.0786L64.1565 40.7835C64.1866 41.9876 64.2859 42.5503 64.6197 43.467C65.1822 45.0099 66.3131 46.329 67.6667 47.0157C68.2442 47.3092 68.5901 47.4302 69.2337 47.5724C69.5796 47.648 69.6578 47.6541 70.3286 47.6541C70.9963 47.6541 71.0775 47.648 71.4144 47.5724C72.4642 47.3455 73.2703 46.9613 74.0914 46.2987C74.3621 46.0809 74.8283 45.5998 75.0178 45.3427C75.084 45.2519 75.1802 45.1279 75.2283 45.0734C75.2765 45.016 75.3426 44.907 75.3757 44.8314C75.4088 44.7528 75.481 44.6378 75.5321 44.5712C75.5863 44.5047 75.6404 44.4169 75.6525 44.3746C75.6645 44.3322 75.7397 44.1719 75.8209 44.0206C75.9021 43.8663 75.9953 43.6485 76.0314 43.5366C76.0675 43.4216 76.1247 43.2703 76.1548 43.1977C76.266 42.9497 76.4255 42.1963 76.4796 41.6609C76.5037 41.434 76.5458 40.36 76.5398 40.121C76.5398 40.0998 76.645 40.0695 76.8044 40.0484C77.8512 39.9031 79.3581 39.6036 80.2244 39.3616C80.4409 39.3041 80.6424 39.2497 80.6755 39.2406C81.0064 39.1589 81.8245 38.8927 82.5253 38.6416C82.9735 38.4812 83.5089 38.2271 83.8127 38.0335C84.1857 37.7914 84.4383 37.4193 84.5135 36.9928C84.6098 36.4512 84.2939 35.8976 83.7736 35.704C83.6322 35.6525 83.4427 35.6465 80.7357 35.6283C79.1475 35.6162 77.7068 35.592 77.5323 35.5769C77.3579 35.5588 77.006 35.5224 76.7503 35.4982C76.4946 35.471 76.2811 35.4498 76.2811 35.4498C76.2781 35.4498 76.266 35.3984 76.254 35.3349C76.236 35.2381 75.9893 34.1429 75.863 33.6195C75.7878 33.2988 75.6765 32.8087 75.6224 32.5758C75.5051 32.0494 75.3336 31.3687 75.2825 31.2144C74.8644 29.9952 73.4928 29.1692 71.5167 28.9454C71.2219 28.9121 70.0308 28.8818 69.7421 28.903ZM70.9753 30.6093C72.3198 30.7031 73.2943 31.1176 73.6071 31.7317C73.6853 31.883 73.7665 32.2279 73.7335 32.2611C73.7214 32.2732 73.559 32.2551 73.3755 32.2188C72.7379 32.0947 72.3318 32.0312 72.1995 32.0312C72.004 32.0312 71.8115 32.1099 71.6731 32.246C71.4986 32.4124 71.4204 32.5818 71.4024 32.8208C71.3693 33.2837 71.7032 33.6679 72.2115 33.7556C72.3168 33.7738 72.5604 33.8071 72.7499 33.8313C72.9394 33.8555 73.2793 33.9039 73.5019 33.9402C73.7244 33.9735 73.9681 34.0128 74.0403 34.0219L74.1756 34.0431L74.2899 34.512C74.4042 34.9809 74.4222 35.1171 74.3831 35.1171C74.3681 35.1171 74.1485 35.0747 73.8929 35.0263C73.6372 34.9779 73.2793 34.9144 73.0958 34.8902C72.9153 34.8629 72.7439 34.8357 72.7198 34.8296C72.6506 34.8085 71.5799 34.6905 71.1858 34.6632C70.7437 34.63 70.0037 34.63 69.5616 34.6632C69.1555 34.6935 68.0336 34.8115 67.9674 34.8296C67.9434 34.8387 67.7659 34.8659 67.5764 34.8902C67.3869 34.9144 67.1704 34.9507 67.0952 34.9688C67.02 34.9839 66.8004 35.0233 66.6049 35.0535L66.25 35.108L66.268 35.0142C66.3101 34.8175 66.4906 34.0824 66.5026 34.0703C66.5237 34.0491 66.8365 33.9977 67.6817 33.8736C68.7735 33.7193 68.8668 33.6921 69.0773 33.4773C69.4924 33.0598 69.3601 32.3216 68.8337 32.0917C68.6262 32.004 68.4186 32.0191 67.4862 32.1946C67.0831 32.2732 66.9448 32.2823 66.9448 32.2369C66.9448 32.1462 67.035 31.8255 67.0952 31.7045C67.2576 31.3687 67.7599 31.0207 68.3434 30.8392C69.0442 30.6214 69.9737 30.5427 70.9753 30.6093ZM72.0882 36.3998C72.5093 36.4452 72.8913 36.4875 72.9334 36.4966C72.9785 36.5057 73.186 36.539 73.3996 36.5692C73.8658 36.6388 74.5546 36.7659 74.714 36.8112C74.7772 36.8294 74.8704 36.8717 74.9246 36.902C74.9877 36.9383 75.1321 36.9686 75.3517 36.9928C75.5351 37.0109 75.7788 37.0381 75.8931 37.0533C76.2059 37.0986 77.2255 37.2015 77.6527 37.2348C78.2452 37.2802 80.083 37.3558 80.6214 37.3558C80.8921 37.3558 81.1117 37.3649 81.1117 37.38C81.1117 37.3921 81.0485 37.4193 80.9703 37.4375C80.8891 37.4587 80.7327 37.504 80.6154 37.5373C80.3326 37.622 79.8724 37.7461 79.6679 37.7945C78.6633 38.0335 78.2061 38.1303 77.5925 38.2331C76.6811 38.3844 76.4435 38.4207 75.0509 38.5932C73.7214 38.7596 71.5799 38.8987 70.3436 38.8987C69.4172 38.8987 67.4651 38.7959 66.5989 38.7021C65.7447 38.6113 64.8543 38.5054 64.5686 38.46C64.4122 38.4358 64.1355 38.3935 63.952 38.3693C63.7715 38.3421 63.6001 38.3148 63.573 38.3088C63.5489 38.2997 63.3715 38.2664 63.182 38.2331C62.427 38.1 61.654 37.9306 60.6735 37.6825C60.5411 37.6493 60.3306 37.5978 60.2072 37.5706C60.0839 37.5403 59.9155 37.4919 59.8373 37.4647C59.7591 37.4375 59.6688 37.4163 59.6358 37.4163C59.6057 37.4163 59.5696 37.4012 59.5606 37.3861C59.5485 37.3679 59.6749 37.3558 59.9125 37.3528C60.117 37.3528 60.3366 37.3467 60.4028 37.3407C60.4689 37.3346 60.8148 37.3225 61.1698 37.3104C62.2375 37.2802 63.8136 37.1622 64.6288 37.0563C64.7521 37.0381 65.0228 37.0109 65.2303 36.9897C65.4379 36.9716 65.6574 36.9383 65.7206 36.9141C65.7808 36.8899 65.889 36.8506 65.9612 36.8233C66.1387 36.7568 67.796 36.4815 68.3133 36.4361C68.4307 36.424 68.7014 36.3968 68.9149 36.3726C69.5135 36.303 69.5496 36.303 70.4639 36.3121C71.1076 36.3211 71.5107 36.3423 72.0882 36.3998ZM66.4184 40.363C66.9448 40.4265 67.0922 40.4386 67.9223 40.4901C69.8895 40.608 70.7407 40.6111 72.5845 40.4991C73.5169 40.4447 73.7395 40.4265 74.3741 40.3509C74.8103 40.2995 74.7651 40.251 74.7651 40.7593C74.7651 41.7486 74.5696 42.6562 74.2057 43.3823C73.6492 44.4865 72.6657 45.382 71.6069 45.7481C71.243 45.8721 70.9061 45.9266 70.3857 45.9387C69.8534 45.9538 69.5135 45.9054 69.0352 45.7451C68.0276 45.4123 67.0079 44.4684 66.4515 43.355C66.0845 42.6169 65.9492 41.9936 65.9311 40.962L65.9191 40.3206H65.9883C66.0274 40.3206 66.2199 40.3388 66.4184 40.363Z" fill="black" fill-opacity="0.7"/>
<path d="M65.8919 47.2336C65.7686 47.2547 65.6182 47.288 65.5611 47.3062C65.5039 47.3243 65.3084 47.3727 65.1249 47.4181C64.7459 47.5089 63.9579 47.7327 63.7564 47.8084C63.6812 47.8356 63.5338 47.8901 63.4255 47.9294C63.3172 47.9657 63.1277 48.0413 63.0044 48.0958C62.8811 48.1472 62.7427 48.2047 62.6976 48.2228C62.6525 48.238 62.466 48.3318 62.2825 48.4316C61.0704 49.076 60.1109 49.9352 59.3619 51.0455C59.0371 51.5265 58.8957 51.7806 58.637 52.3615C58.4385 52.8032 58.2189 53.5626 58.1046 54.207C57.9934 54.8332 57.9362 56.5002 58.0114 56.8995C58.0746 57.2293 58.2911 57.5409 58.5829 57.7133L58.7182 57.792H70.2082H81.6981L81.8274 57.7224C82.0289 57.6135 82.2184 57.4199 82.3237 57.2172L82.4199 57.0357L82.429 56.1281C82.441 55.1902 82.4109 54.6396 82.3267 54.1828C82.0199 52.5098 81.298 51.103 80.149 49.9382C79.9265 49.7113 79.6497 49.4542 79.5324 49.3604C78.5699 48.604 77.3788 48.005 76.0133 47.5966C75.8659 47.5512 75.6614 47.4907 75.5621 47.4574C75.3786 47.4 75.144 47.3394 74.7951 47.2578C74.5094 47.1912 74.2326 47.2154 74.0792 47.3183C73.974 47.3848 73.9288 47.4574 73.7905 47.7388C73.3934 48.5677 72.5723 49.2847 71.6399 49.6236C70.4939 50.0411 69.0983 49.8777 68.1177 49.2121C67.5583 48.834 66.9898 48.1714 66.8394 47.7237C66.689 47.2759 66.4183 47.1337 65.8919 47.2336ZM65.6663 49.191C65.9761 49.6659 66.5627 50.2528 67.065 50.5887C67.7899 51.0757 68.4756 51.342 69.4412 51.5174C69.7269 51.5689 70.5751 51.584 70.93 51.5477C72.0189 51.4297 73.0897 51.0001 73.8597 50.3799C74.1484 50.147 74.7139 49.5449 74.9064 49.2636C74.9635 49.1789 75.0147 49.1062 75.0177 49.1032C75.0508 49.0669 76.305 49.4784 76.7502 49.672C77.5864 50.035 78.4887 50.6371 78.9609 51.1544C79.8152 52.0892 80.2152 52.7941 80.525 53.9196C80.6423 54.3431 80.6934 54.7636 80.7115 55.4413L80.7295 56.1129H70.2262H59.7259V55.6016C59.7259 55.0117 59.783 54.5065 59.9093 53.9649C60.0297 53.4537 60.0808 53.2873 60.1831 53.0936C60.2282 53.0029 60.2673 52.9121 60.2673 52.8879C60.2673 52.8637 60.3214 52.7578 60.3846 52.6519C60.4477 52.543 60.541 52.3706 60.5921 52.2647C60.6433 52.1588 60.7064 52.0529 60.7365 52.0287C60.7636 52.0045 60.8267 51.9259 60.8719 51.8533C61.0373 51.59 61.4764 51.109 61.7712 50.87C61.8945 50.7672 62.0028 50.6764 62.0118 50.6673C62.0208 50.6582 62.1141 50.5826 62.2224 50.4949C62.6224 50.1802 63.3383 49.79 63.9098 49.5752C64.2196 49.4602 65.0557 49.197 65.2061 49.1698C65.2693 49.1577 65.3686 49.1304 65.4317 49.1062C65.5851 49.0518 65.5731 49.0488 65.6663 49.191Z" fill="black" fill-opacity="0.7"/>
<path d="M16.648 41.2852C15.5913 41.3565 14.847 41.5704 14.2555 41.9693C13.91 42.2032 13.5843 42.6065 13.4625 42.9541C13.4027 43.119 13.1125 44.2999 12.9397 45.0708C12.8622 45.4206 12.747 45.9019 12.7182 45.9954C12.685 46.1113 12.7381 46.0957 12.0957 46.1603C11.4644 46.2249 10.9084 46.2405 9.19381 46.2405C7.35963 46.2405 7.34855 46.2428 7.11595 46.3675C6.96754 46.45 6.82576 46.6238 6.75488 46.8109C6.70614 46.9424 6.6995 46.9936 6.70614 47.1563C6.71279 47.3278 6.72165 47.3657 6.80804 47.5373C6.98969 47.9094 7.29096 48.1166 8.10615 48.4397C8.42514 48.5644 8.61786 48.6313 9.04982 48.7672C9.80521 49.0034 10.946 49.2618 11.9628 49.4267C12.1954 49.4624 12.4147 49.5002 12.4524 49.5047L12.521 49.5158L12.5343 50.035C12.5565 50.9218 12.6296 51.3362 12.8755 52.0113C13.2897 53.1476 14.1226 54.1191 15.1195 54.6248C15.5448 54.841 15.7995 54.9301 16.2736 55.0348C16.5283 55.0905 16.5859 55.095 17.0799 55.095C17.5717 55.095 17.6315 55.0905 17.8796 55.0348C18.6527 54.8677 19.2464 54.5847 19.8511 54.0968C20.0505 53.9364 20.3939 53.5821 20.5334 53.3927C20.5821 53.3259 20.653 53.2345 20.6885 53.1944C20.7239 53.1521 20.7727 53.0719 20.797 53.0162C20.8214 52.9582 20.8746 52.8736 20.9122 52.8245C20.9521 52.7755 20.992 52.7109 21.0008 52.6797C21.0097 52.6485 21.0651 52.5304 21.1249 52.419C21.1847 52.3054 21.2533 52.145 21.2799 52.0625C21.3065 51.9779 21.3486 51.8665 21.3708 51.813C21.4527 51.6303 21.5701 51.0755 21.61 50.6811C21.6277 50.514 21.6587 49.723 21.6543 49.547C21.6543 49.5314 21.7318 49.5091 21.8492 49.4935C22.6201 49.3866 23.7299 49.166 24.3679 48.9878C24.5274 48.9454 24.6758 48.9053 24.7002 48.8986C24.9439 48.8385 25.5464 48.6424 26.0625 48.4575C26.3926 48.3394 26.7869 48.1522 27.0107 48.0096C27.2853 47.8314 27.4714 47.5573 27.5268 47.2432C27.5977 46.8443 27.3651 46.4366 26.9819 46.294C26.8777 46.2561 26.7382 46.2517 24.7445 46.2383C23.5749 46.2294 22.5138 46.2116 22.3853 46.2004C22.2568 46.1871 21.9977 46.1603 21.8094 46.1425C21.6211 46.1224 21.4638 46.1068 21.4638 46.1068C21.4616 46.1068 21.4527 46.069 21.4439 46.0222C21.4306 45.9509 21.2489 45.1443 21.1559 44.7588C21.1005 44.5227 21.0185 44.1617 20.9787 43.9902C20.8923 43.6025 20.766 43.1011 20.7283 42.9875C20.4204 42.0896 19.4103 41.4813 17.9549 41.3164C17.7378 41.2919 16.8606 41.2697 16.648 41.2852ZM17.5562 42.5419C18.5464 42.611 19.2641 42.9162 19.4945 43.3685C19.5521 43.4799 19.6119 43.7339 19.5875 43.7584C19.5787 43.7673 19.459 43.754 19.3239 43.7272C18.8543 43.6359 18.5552 43.5891 18.4578 43.5891C18.3138 43.5891 18.172 43.647 18.0701 43.7473C17.9416 43.8698 17.884 43.9946 17.8707 44.1706C17.8464 44.5115 18.0923 44.7945 18.4666 44.8591C18.5442 44.8725 18.7236 44.897 18.8632 44.9148C19.0027 44.9326 19.253 44.9683 19.417 44.995C19.5809 45.0195 19.7603 45.0485 19.8135 45.0552L19.9132 45.0708L19.9973 45.4161C20.0815 45.7615 20.0948 45.8618 20.066 45.8618C20.0549 45.8618 19.8932 45.8306 19.7049 45.7949C19.5166 45.7593 19.253 45.7125 19.1179 45.6946C18.985 45.6746 18.8587 45.6545 18.841 45.6501C18.79 45.6345 18.0014 45.5476 17.7112 45.5275C17.3856 45.503 16.8407 45.503 16.515 45.5275C16.216 45.5498 15.3897 45.6367 15.341 45.6501C15.3233 45.6568 15.1926 45.6768 15.053 45.6946C14.9135 45.7125 14.754 45.7392 14.6986 45.7526C14.6432 45.7637 14.4815 45.7927 14.3375 45.815L14.0761 45.8551L14.0894 45.786C14.1204 45.6412 14.2533 45.0997 14.2622 45.0908C14.2777 45.0752 14.5081 45.0374 15.1305 44.946C15.9347 44.8324 16.0033 44.8123 16.1584 44.6541C16.4641 44.3466 16.3666 43.803 15.979 43.6337C15.8261 43.569 15.6733 43.5802 14.9866 43.7094C14.6897 43.7673 14.5878 43.774 14.5878 43.7406C14.5878 43.6738 14.6543 43.4376 14.6986 43.3485C14.8182 43.1011 15.1881 42.8449 15.6179 42.7112C16.134 42.5508 16.8185 42.4929 17.5562 42.5419ZM18.3758 46.8065C18.6859 46.8399 18.9673 46.8711 18.9983 46.8778C19.0315 46.8844 19.1844 46.909 19.3416 46.9312C19.685 46.9825 20.1923 47.0761 20.3097 47.1095C20.3562 47.1229 20.4249 47.154 20.4647 47.1763C20.5113 47.2031 20.6176 47.2253 20.7793 47.2432C20.9144 47.2565 21.0939 47.2766 21.178 47.2877C21.4084 47.3212 22.1594 47.3969 22.4739 47.4214C22.9103 47.4548 24.2638 47.5105 24.6603 47.5105C24.8597 47.5105 25.0214 47.5172 25.0214 47.5284C25.0214 47.5373 24.9749 47.5573 24.9173 47.5707C24.8575 47.5863 24.7423 47.6197 24.6559 47.6442C24.4477 47.7066 24.1087 47.798 23.9581 47.8336C23.2182 48.0096 22.8815 48.0809 22.4296 48.1567C21.7584 48.2681 21.5834 48.2948 20.5578 48.4218C19.5787 48.5444 18.0014 48.6469 17.091 48.6469C16.4087 48.6469 14.971 48.5711 14.3331 48.502C13.704 48.4352 13.0483 48.3572 12.8378 48.3238C12.7226 48.306 12.5188 48.2748 12.3837 48.257C12.2508 48.2369 12.1245 48.2168 12.1046 48.2124C12.0869 48.2057 11.9562 48.1812 11.8166 48.1567C11.2606 48.0587 10.6913 47.9339 9.96913 47.7512C9.87166 47.7267 9.7166 47.6888 9.62577 47.6687C9.53495 47.6465 9.4109 47.6108 9.3533 47.5908C9.29571 47.5707 9.22925 47.5551 9.20489 47.5551C9.18273 47.5551 9.15615 47.544 9.14951 47.5328C9.14065 47.5195 9.23368 47.5105 9.40868 47.5083C9.55932 47.5083 9.72103 47.5039 9.76976 47.4994C9.8185 47.4949 10.0732 47.486 10.3346 47.4771C11.121 47.4548 12.2818 47.3679 12.8821 47.29C12.9729 47.2766 13.1723 47.2565 13.3252 47.2409C13.478 47.2276 13.6397 47.2031 13.6862 47.1852C13.7305 47.1674 13.8103 47.1385 13.8634 47.1184C13.9941 47.0694 15.2147 46.8666 15.5957 46.8332C15.6821 46.8243 15.8815 46.8042 16.0388 46.7864C16.4796 46.7352 16.5062 46.7352 17.1796 46.7418C17.6537 46.7485 17.9505 46.7641 18.3758 46.8065ZM14.2002 49.7253C14.5878 49.7721 14.6964 49.781 15.3078 49.8188C16.7565 49.9057 17.3834 49.908 18.7413 49.8255C19.428 49.7854 19.592 49.7721 20.0594 49.7164C20.3806 49.6785 20.3473 49.6428 20.3473 50.0171C20.3473 50.7457 20.2033 51.4142 19.9353 51.9489C19.5255 52.7622 18.8011 53.4217 18.0214 53.6913C17.7533 53.7826 17.5052 53.8227 17.122 53.8316C16.7299 53.8428 16.4796 53.8071 16.1274 53.689C15.3853 53.444 14.6343 52.7488 14.2245 51.9289C13.9543 51.3852 13.8546 50.9262 13.8413 50.1664L13.8324 49.6941H13.8834C13.9122 49.6941 14.054 49.7074 14.2002 49.7253Z" fill="black" fill-opacity="0.7"/>
</svg>
